<svg xmlns="http://www.w3.org/2000/svg" width="64.006" height="58.754" viewBox="0 0 64.006 58.754">
  <g id="Page-1" transform="translate(0.5 0.5)">
    <g id="_002---API" data-name="002---API" transform="translate(0 0)">
      <path id="Shape" d="M53.025,36.75H13.65a13.65,13.65,0,1,1,0-27.3c.089,0,.178,0,.266,0a15.748,15.748,0,0,1,28.87,0,12.093,12.093,0,0,1,10.86,7.366,9.975,9.975,0,0,1-.621,19.931ZM13.65,11.55a11.55,11.55,0,1,0,0,23.1H53.025a7.875,7.875,0,1,0,0-15.75h-.1a1.05,1.05,0,0,1-.99-.7,9.963,9.963,0,0,0-9.466-6.65c-.1,0-.2,0-.307.008a1.059,1.059,0,0,1-1.055-.673,13.648,13.648,0,0,0-25.515.029,1.048,1.048,0,0,1-1.087.674,8.454,8.454,0,0,0-.85-.037Z" transform="translate(0 0)" fill="#ba5937" stroke="#ba5937" stroke-width="1"/>
      <path id="Shape-2" data-name="Shape" d="M17.05,29.7a1.051,1.051,0,0,1-1-1.383l4.2-12.6a1.05,1.05,0,0,1,1.992.664l-4.2,12.6a1.05,1.05,0,0,1-1,.718Z" transform="translate(0.8 0.75)" fill="#ba5937"/>
      <path id="Shape-3" data-name="Shape" d="M25.25,29.7a1.05,1.05,0,0,1-1-.718l-4.2-12.6a1.05,1.05,0,1,1,1.992-.664l4.2,12.6a1.051,1.051,0,0,1-1,1.383Z" transform="translate(1 0.75)" fill="#ba5937"/>
      <path id="Shape-4" data-name="Shape" d="M23.613,24.1H18.72a1.05,1.05,0,0,1,0-2.1h4.893a1.05,1.05,0,0,1,0,2.1Z" transform="translate(0.883 1.1)" fill="#ba5937"/>
      <path id="Shape-5" data-name="Shape" d="M28.05,29.7A1.05,1.05,0,0,1,27,28.65V16.05a1.05,1.05,0,0,1,2.1,0v12.6A1.05,1.05,0,0,1,28.05,29.7Z" transform="translate(1.35 0.75)" fill="#ba5937"/>
      <path id="Shape-6" data-name="Shape" d="M32.25,23.4h-4.2A1.05,1.05,0,0,1,27,22.35v-6.3A1.05,1.05,0,0,1,28.05,15h4.2a4.2,4.2,0,0,1,0,8.4ZM29.1,21.3h3.15a2.1,2.1,0,0,0,0-4.2H29.1Z" transform="translate(1.35 0.75)" fill="#ba5937"/>
      <path id="Shape-7" data-name="Shape" d="M40.05,29.7A1.05,1.05,0,0,1,39,28.65V16.05a1.05,1.05,0,0,1,2.1,0v12.6A1.05,1.05,0,0,1,40.05,29.7Z" transform="translate(1.95 0.75)" fill="#ba5937"/>
      <path id="Shape-8" data-name="Shape" d="M43.35,17.1h-6.3a1.05,1.05,0,1,1,0-2.1h6.3a1.05,1.05,0,1,1,0,2.1Z" transform="translate(1.8 0.75)" fill="#ba5937"/>
      <path id="Shape-9" data-name="Shape" d="M43.35,29.1h-6.3a1.05,1.05,0,0,1,0-2.1h6.3a1.05,1.05,0,0,1,0,2.1Z" transform="translate(1.8 1.35)" fill="#ba5937"/>
      <path id="Shape-10" data-name="Shape" d="M25,56.12a1.935,1.935,0,0,1-.77-.16l-6.569-2.723A1.956,1.956,0,0,1,16.6,52.166a1.9,1.9,0,0,1,.024-1.489l1.564-3.782A21.4,21.4,0,0,1,14.1,42.809l-3.816,1.576a1.918,1.918,0,0,1-1.485,0,1.941,1.941,0,0,1-1.05-1.045l-2.721-6.6a1.933,1.933,0,0,1,1.018-2.526l3.721-1.534a1.05,1.05,0,0,1,.8,1.942l-3.54,1.458,2.6,6.306,4.432-1.83a1.051,1.051,0,0,1,1.26.367,19.332,19.332,0,0,0,4.752,4.751,1.049,1.049,0,0,1,.368,1.262l-1.829,4.422,6.3,2.612,1.831-4.425a1.05,1.05,0,0,1,1.154-.633,18.972,18.972,0,0,0,6.707-.009,1.053,1.053,0,0,1,1.156.631L37.6,53.965,43.9,51.356l-1.83-4.433a1.05,1.05,0,0,1,.372-1.263,19.12,19.12,0,0,0,4.748-4.739,1.048,1.048,0,0,1,1.26-.366l4.431,1.833,2.614-6.3-2.528-1.052A1.049,1.049,0,0,1,53.327,33a1.1,1.1,0,0,1,.414.08l2.7,1.123a1.92,1.92,0,0,1,1.055,1.059,1.951,1.951,0,0,1,0,1.484l-2.732,6.588A1.938,1.938,0,0,1,52.2,44.379l-3.79-1.569a21.174,21.174,0,0,1-4.082,4.077L45.9,50.7a1.88,1.88,0,0,1,.013,1.465,1.955,1.955,0,0,1-1.069,1.073l-6.579,2.728a1.934,1.934,0,0,1-2.539-1.056L34.143,51.1a21.1,21.1,0,0,1-5.771.008l-1.574,3.8a1.942,1.942,0,0,1-1.793,1.206Zm-.148-2.006h0Zm.2-.089h0Zm18.91-2.509,0,.008ZM18.556,51.5l0,0Zm25.485-.2h0Zm-25.576,0h0Zm34.352-8.762h0ZM9.484,42.446h0Zm43.529,0h0Zm2.623-6.3h0ZM6.972,35.932v0Z" transform="translate(0.244 1.63)" fill="#ba5937" stroke="#ba5937" stroke-width="1"/>
      <path id="Shape-11" data-name="Shape" d="M30.7,44.55A15.831,15.831,0,0,1,16,34.425a1.05,1.05,0,1,1,1.962-.749,13.639,13.639,0,0,0,25.485,0,1.05,1.05,0,1,1,1.962.749A15.831,15.831,0,0,1,30.7,44.55Z" transform="translate(0.796 1.649)" fill="#ba5937" stroke="#ba5937" stroke-width="1"/>
    </g>
  </g>
</svg>
