<svg xmlns="http://www.w3.org/2000/svg" width="34.979" height="54.271" viewBox="0 0 34.979 54.271">
  <g id="application" transform="translate(-91)">
    <path id="Path_18960" data-name="Path 18960" d="M212.59,435.18h6.36a1.59,1.59,0,0,0,0-3.18h-6.36a1.59,1.59,0,0,0,0,3.18Z" transform="translate(-107.28 -386.209)" fill="#5cbd2c"/>
    <path id="Path_18961" data-name="Path 18961" d="M120.149,0H96.83A5.836,5.836,0,0,0,91,5.83V48.441a5.836,5.836,0,0,0,5.83,5.83h23.32a5.836,5.836,0,0,0,5.83-5.83V5.83A5.837,5.837,0,0,0,120.149,0ZM94.18,9.752H122.8V40.491H94.18ZM96.83,3.18h23.32a2.653,2.653,0,0,1,2.65,2.65v.742H94.18V5.83A2.653,2.653,0,0,1,96.83,3.18ZM122.8,48.441a2.653,2.653,0,0,1-2.65,2.65H96.83a2.653,2.653,0,0,1-2.65-2.65v-4.77H122.8Z" transform="translate(0)" fill="#5cbd2c"/>
    <circle id="Ellipse_1077" data-name="Ellipse 1077" cx="1.5" cy="1.5" r="1.5" transform="translate(116.667 46.271)" fill="#5cbd2c"/>
    <circle id="Ellipse_1078" data-name="Ellipse 1078" cx="1.5" cy="1.5" r="1.5" transform="translate(97.667 46.271)" fill="#5cbd2c"/>
    <path id="Path_18962" data-name="Path 18962" d="M158.95,122h-6.36a1.59,1.59,0,0,0-1.59,1.59v6.36a1.59,1.59,0,0,0,1.59,1.59h6.36a1.59,1.59,0,0,0,1.59-1.59v-6.36A1.59,1.59,0,0,0,158.95,122Zm-1.59,6.36h-3.18v-3.18h3.18Z" transform="translate(-53.64 -109.068)" fill="#5cbd2c"/>
    <path id="Path_18963" data-name="Path 18963" d="M272.59,131.54h6.36a1.59,1.59,0,0,0,1.59-1.59v-6.36a1.59,1.59,0,0,0-1.59-1.59h-6.36a1.59,1.59,0,0,0-1.59,1.59v6.36A1.59,1.59,0,0,0,272.59,131.54Zm1.59-6.36h3.18v3.18h-3.18Z" transform="translate(-160.92 -109.068)" fill="#5cbd2c"/>
    <path id="Path_18964" data-name="Path 18964" d="M158.95,242h-6.36a1.59,1.59,0,0,0-1.59,1.59v6.36a1.59,1.59,0,0,0,1.59,1.59h6.36a1.59,1.59,0,0,0,1.59-1.59v-6.36A1.59,1.59,0,0,0,158.95,242Zm-1.59,6.36h-3.18v-3.18h3.18Z" transform="translate(-53.64 -216.349)" fill="#5cbd2c"/>
    <path id="Path_18965" data-name="Path 18965" d="M281.245,245.048a1.59,1.59,0,0,0-1.13-1.123l-7.12-1.874a1.59,1.59,0,0,0-1.942,1.942l1.874,7.12a1.59,1.59,0,0,0,2.662.72l1.5-1.5,1.124,1.124a1.59,1.59,0,0,0,2.248-2.249l-1.124-1.124,1.5-1.5A1.59,1.59,0,0,0,281.245,245.048Zm-6.424.772,1.807.476-1.332,1.332Z" transform="translate(-160.92 -216.348)" fill="#5cbd2c"/>
  </g>
</svg>
