<svg xmlns="http://www.w3.org/2000/svg" width="44.648" height="58.286" viewBox="0 0 44.648 58.286">
  <g id="Group_346" data-name="Group 346" transform="translate(-2789.621 -138.504)">
    <path id="Path_1288" data-name="Path 1288" d="M2834.27,140.367a1.863,1.863,0,0,0-1.863-1.863H2791.6l-.206.011a1.863,1.863,0,0,0-1.769,1.86V190.4a1.863,1.863,0,0,0,1.863,1.863h12.326a1.863,1.863,0,1,0,0-3.726H2793.35V142.23h37.128v46.306h-6.544a1.863,1.863,0,1,0,0,3.726h8.407a1.863,1.863,0,0,0,1.863-1.863V140.837A1.853,1.853,0,0,0,2834.27,140.367Z" fill="#24a07b"/>
    <path id="Path_1289" data-name="Path 1289" d="M2808.59,160.594h16.917a1.863,1.863,0,1,0,0-3.726H2808.59a1.863,1.863,0,1,0,0,3.726Z" transform="translate(-7.999 -8.588)" fill="#24a07b"/>
    <path id="Path_1290" data-name="Path 1290" d="M2808.59,176.45h6.84a1.863,1.863,0,0,0,0-3.726h-6.84a1.863,1.863,0,1,0,0,3.726Z" transform="translate(-7.999 -16.005)" fill="#24a07b"/>
    <path id="Path_1291" data-name="Path 1291" d="M2826.14,204.509a1.863,1.863,0,1,0-2.559,2.708l8.3,7.835-7.9,9.3a1.863,1.863,0,1,0,2.839,2.413l9.049-10.646a1.863,1.863,0,0,0-.14-2.561Z" transform="translate(-15.61 -30.632)" fill="#24a07b"/>
  </g>
</svg>
