<?xml version="1.0" encoding="utf-8"?>
<!-- Generator: Adobe Illustrator 24.0.1, SVG Export Plug-In . SVG Version: 6.00 Build 0)  -->
<svg version="1.1" id="Layer_1" xmlns="http://www.w3.org/2000/svg" xmlns:xlink="http://www.w3.org/1999/xlink" x="0px" y="0px"
	 viewBox="0 0 1804.2 396" style="enable-background:new 0 0 1804.2 396;" xml:space="preserve">
<style type="text/css">
	.st0{fill:#FFFFFF;}
	.st1{fill:#FCFCFC;}
	.st2{fill:#EB1F24;}
	.st3{fill:#EA1F24;}
	.st4{fill:#0A0A0A;}
	.st5{fill:#D63B3C;}
	.st6{fill:#D44747;}
	.st7{fill:#C83133;}
	.st8{fill:#C23C3D;}
	.st9{fill:#C84141;}
	.st10{fill:#C43939;}
	.st11{fill:#FBC0BF;}
	.st12{fill:#C63A3C;}
	.st13{fill:#FDD9D5;}
	.st14{fill:#FFE5E7;}
	.st15{fill:#D13538;}
	.st16{fill:#FBD6D6;}
	.st17{fill:#CE3436;}
	.st18{fill:#CE3537;}
	.st19{fill:#D33334;}
	.st20{fill:#FEDFDB;}
	.st21{fill:#C8C8CA;}
	.st22{fill:#2D3191;}
	.st23{fill:#FBFCFE;}
	.st24{fill:#FDFCFD;}
	.st25{fill:#FFFFFF;stroke:#FCFCFC;stroke-width:2;stroke-miterlimit:10;}
	.st26{fill:#372F7D;}
	.st27{fill:#FED2D0;}
	.st28{fill:#BA4665;}
	.st29{fill:#DD2430;}
	.st30{fill:#D13939;}
	.st31{fill:#303473;}
	.st32{fill:#D22D30;}
	.st33{fill:#522C74;}
	.st34{fill:#BC3536;}
	.st35{fill:#D92828;}
	.st36{fill:#FEDEE1;}
	.st37{fill:#FEDDE1;}
	.st38{fill:#BB3433;}
	.st39{fill:#FFF3F4;}
	.st40{fill:#393C7E;}
	.st41{fill:#C93C3D;}
	.st42{fill:#404384;}
	.st43{fill:#C33839;}
	.st44{fill:#CD383A;}
	.st45{fill:#CD373B;}
	.st46{fill:#3A3E81;}
	.st47{fill:#4C4E8B;}
	.st48{fill:#D03639;}
	.st49{fill:#FDDDDB;}
	.st50{fill:#C63338;}
	.st51{fill:#CA3132;}
	.st52{fill:#C94244;}
	.st53{fill:#CA383B;}
	.st54{fill:#32347C;}
	.st55{fill:#CA383A;}
	.st56{fill:#D0383A;}
	.st57{fill:#3D4085;}
	.st58{fill:#3A3C82;}
	.st59{fill:#404388;}
	.st60{fill:#D52E30;}
	.st61{fill:#CC393D;}
	.st62{fill:#CC3C3F;}
	.st63{fill:#CC383B;}
	.st64{fill:#373A7F;}
	.st65{fill:#3B3E84;}
	.st66{fill:#3F4185;}
	.st67{fill:#FEDDDA;}
	.st68{fill:#CB3435;}
	.st69{fill:#C93E3F;}
	.st70{fill:#CA4343;}
	.st71{fill:#CD3539;}
	.st72{fill:#3E4082;}
	.st73{fill:#FDDDDC;}
	.st74{fill:#C83B3C;}
	.st75{fill:#C93B3C;}
	.st76{fill:#FFEFEE;}
	.st77{fill:#3E4282;}
	.st78{fill:#FEDFDD;}
	.st79{fill:#393B82;}
	.st80{fill:#FEE1E0;}
	.st81{fill:#CF3D3E;}
	.st82{fill:#CD3A3B;}
	.st83{fill:#3E4085;}
	.st84{fill:#FEDCDB;}
	.st85{fill:#373985;}
	.st86{fill:#363A88;}
	.st87{fill:#CE3739;}
	.st88{fill:#FCD8D8;}
	.st89{fill:#37397F;}
	.st90{fill:#D23032;}
	.st91{fill:#D23639;}
	.st92{fill:#D32E32;}
	.st93{fill:#CA3F40;}
	.st94{fill:#FEDBD9;}
	.st95{fill:#CB3E3E;}
	.st96{fill:#3D4184;}
	.st97{fill:#444789;}
	.st98{fill:#CF3134;}
	.st99{fill:#CE3639;}
	.st100{fill:#CD3D3F;}
	.st101{fill:#3C3D82;}
	.st102{fill:#D03335;}
	.st103{fill:#DF2325;}
	.st104{fill:#C93437;}
	.st105{fill:#3D3F82;}
	.st106{fill:#373B88;}
	.st107{fill:#CF373A;}
	.st108{fill:#34367F;}
	.st109{fill:#CE3237;}
	.st110{fill:#36367E;}
	.st111{fill:#3B3F82;}
	.st112{fill:#D03C3E;}
	.st113{fill:#CA3B3E;}
	.st114{fill:#424489;}
	.st115{fill:#CB3E3F;}
	.st116{fill:#383A84;}
	.st117{fill:#3B3D87;}
	.st118{fill:#3D4083;}
	.st119{fill:#434689;}
	.st120{fill:#FCD8D6;}
	.st121{fill:#FEE1DD;}
	.st122{fill:#CD3234;}
	.st123{fill:#373A82;}
	.st124{fill:#C94042;}
	.st125{fill:#FCD7D6;}
	.st126{fill:#36387F;}
	.st127{fill:#353885;}
	.st128{fill:#FEE2E2;}
	.st129{fill:#383A80;}
	.st130{fill:#3A3C86;}
	.st131{fill:#363980;}
	.st132{fill:#D72B2F;}
	.st133{fill:#373A7E;}
	.st134{fill:#FAD8D6;}
	.st135{fill:#FEE1E1;}
	.st136{fill:#FCD9D9;}
	.st137{fill:#373883;}
	.st138{fill:#FDD8D4;}
	.st139{fill:#C83739;}
	.st140{fill:#3E408C;}
	.st141{fill:#D33438;}
	.st142{fill:#CB3E40;}
	.st143{fill:#393D84;}
	.st144{fill:#3B3D80;}
	.st145{fill:#3F4184;}
	.st146{fill:#36377E;}
	.st147{fill:#383A8A;}
	.st148{fill:#FED7D7;}
</style>
<path class="st0" d="M987.7,66.7c24.4,0,48.8,0,74,0c5.6,9,5.6,9,7.9,13.5c0.8,1.5,0.8,1.5,1.5,2.9c0.5,1,1,2,1.5,3
	c3.6,6.9,7.2,13.8,11,20.6c5.5-7.5,10.9-15.1,16.3-22.8c1-1.5,1-1.5,2.1-3c3.3-4.7,6.5-9.4,9.6-14.2c21.4,0,42.9,0,65,0
	c0,55.4,0,110.9,0,168c1.3,0.7,2.6,1.3,4,2c3.3,4.8,3.8,9.3,3,15c-0.7,2.9-1.4,5.7-2.3,8.6c-0.3,1.1-0.3,1.1-0.6,2.1
	c-1.1,3.6-2.3,6.7-4.2,9.9c-2.5,4.9-2.5,9.4-2.6,14.8c0,1,0,1.9-0.1,2.9c0,3.1-0.1,6.1-0.1,9.2c0,2.1-0.1,4.2-0.1,6.3
	c-0.1,5.1-0.1,10.2-0.2,15.3c-12.5,0-25.1,0-38,0c0-71.9,0-143.9,0-218c-0.7,0-1.3,0-2,0c-0.2,0.5-0.5,1.1-0.7,1.6
	c-1.7,3.2-3.9,5.9-6.2,8.8c-0.7,0.9-0.7,0.9-1.5,1.8c-4,5-8.1,9.9-12.3,14.7c-0.9,1.1-1.8,2.1-2.7,3.2c-1.6,1.9-1.6,1.9-3.4,3.5
	c-6.9,7.2-6.2,15.2-6.1,24.6c0,1.7,0,3.5,0,5.2c0,4.7,0,9.4,0,14.1c0,4.9,0,9.9,0,14.8c0,9.3,0,18.7,0,28c0,10.6,0,21.3,0,31.9
	c-0.1,21.9,0,43.7,0,65.6c-15.8,0-31.7,0-48,0c0-5.4-0.1-10.8-0.1-16.4c0-3.4-0.1-6.9-0.1-10.3c0-5.5-0.1-10.9-0.1-16.4
	c0-4.4,0-8.8-0.1-13.2c0-1.7,0-3.4,0-5c0-2.4,0-4.7-0.1-7.1c0-0.7,0-1.4,0-2.1c-0.1-5-1.6-7.7-4.6-11.6c-1.2-2.6-1.2-2.6-2.1-5.2
	c-0.5-1.4-0.5-1.4-1-2.9c-0.5-1.5-0.5-1.5-1-2.9c-0.4-1-0.7-1.9-1.1-2.9c-1.7-4.7-3.2-9.1-3.7-14.1c2.6,0,5.3,0,8,0
	c0.2-9.9,0.3-19.7,0.3-29.6c0-4.6,0-9.2,0.1-13.7c0.1-4.4,0.1-8.9,0.1-13.3c0-1.7,0-3.3,0.1-5c0.6-18.2-6.2-25.8-15.7-43.4
	c-0.3,70.9-0.7,141.9-1,215c-14.2,0-28.4,0-43,0C987.7,236.9,987.7,153.1,987.7,66.7z"/>
<path class="st0" d="M941.8,74.9c8.6,8.4,13.6,16.2,14,28.5c0,1.4,0,2.8,0,4.1c0,0.8,0,1.5,0,2.3c0,2.6,0,5.1,0,7.7
	c0,1.8,0,3.7,0,5.5c0,5,0,10,0,15c0,3.1,0,6.2,0,9.4c0,10.9,0,21.8,0,32.7c0,10.1,0,20.3,0,30.4c0,8.7,0,17.4,0,26.1
	c0,5.2,0,10.4,0,15.6c0,4.9,0,9.8,0,14.7c0,1.8,0,3.6,0,5.4c0,14.7-0.7,27.3-11.2,38.6c-15,13.9-35.8,16.3-55.3,16.3
	c-0.7,0-1.4,0-2.1,0c-20.5-0.1-39-3.3-54.4-18c-7.4-7.8-9.4-17.7-9.4-28.1c0-0.8,0-1.6,0-2.4c0-2.6,0-5.2,0-7.8c0-1.9,0-3.7,0-5.6
	c0-5.1,0-10.1,0-15.2c0-3.2,0-6.3,0-9.5c0-9.9,0-19.8,0-29.8c0-11.4,0-22.9-0.1-34.3c0-8.8,0-17.7,0-26.5c0-5.3,0-10.6,0-15.8
	c0-5,0-9.9,0-14.9c0-1.8,0-3.6,0-5.5c-0.1-15.2,1.5-25,11.7-36.5C859.8,55.2,915.9,52.4,941.8,74.9z"/>
<path class="st0" d="M1461.1,76.9c8,8.5,10.8,17.2,10.8,28.7c0,0.8,0,1.6,0,2.4c0,2.6,0,5.2,0,7.8c0,1.9,0,3.7,0,5.6
	c0,5.1,0,10.2,0,15.3c0,3.2,0,6.4,0,9.5c0,10,0,19.9,0,29.9c0,11.5,0,23,0.1,34.5c0,8.9,0,17.8,0,26.7c0,5.3,0,10.6,0,15.9
	c0,5,0,10,0,15c0,1.8,0,3.7,0,5.5c0.1,15.5-1.1,26.4-12.2,38c-5.1,4.8-10.7,7.5-17.2,10.1c-0.7,0.3-1.5,0.6-2.2,0.9
	c-11.2,4.1-23.2,4.5-35.1,4.4c-0.7,0-1.4,0-2.1,0c-19.3-0.1-37.2-2.7-52.3-15.9c-7.6-7.9-10.7-16.8-10.6-27.7c0-0.8,0-1.6,0-2.4
	c0-2.7,0-5.4,0-8c0-1.9,0-3.9,0-5.8c0-5.2,0-10.4,0-15.7c0-3.3,0-6.5,0-9.8c0-11.4,0-22.8,0-34.2c0-10.6,0-21.2-0.1-31.8
	c0-9.1,0-18.2,0-27.4c0-5.4,0-10.9,0-16.3c0-5.1,0-10.2,0-15.4c0-1.9,0-3.7,0-5.6c-0.1-14.6,1.3-24,11.9-34.9
	c3.6-3.3,7.2-5.5,11.6-7.4c0.9-0.4,1.9-0.9,2.8-1.3c6.6-3,12.9-4.8,20.2-5.7c1.3-0.2,1.3-0.2,2.6-0.3
	C1412.9,58.8,1442.4,60.1,1461.1,76.9z"/>
<path class="st0" d="M1497.7,65.7c104.5,0,104.5,0,121.1,14c9.5,9.9,11.1,22,11.1,35.1c0,1,0,1.9,0,2.9c0,2,0,4.1,0,6.1
	c0,3.1,0,6.1,0.1,9.2c0.1,14.1,0,28.7-10.1,39.6c-10.2,8.9-24.2,10.8-37.2,12.1c0.9,0.2,0.9,0.2,1.8,0.4
	c31.3,6.4,31.3,6.4,40.2,19.6c5.7,10.9,4.1,25.4,4.3,37.5c0.3,14.8,0.9,29.5,2.1,44.3c0.1,1.2,0.1,1.2,0.2,2.4
	c0.6,7.9,1.3,15.6,3,23.4c0.4,2.5,0.4,2.5,0.4,9.5c-16.5,0-33,0-50,0c-6.6-24.8-6.4-48.6-6.4-74.1c0-4,0-8-0.1-12c0-1.5,0-3,0-4.5
	c0.1-11.3,0.1-11.3-4.5-21.4c-7.7-5.7-14.8-4.8-25-6c0,38.9,0,77.9,0,118c-16.8,0-33.7,0-51,0
	C1497.7,237.3,1497.7,152.8,1497.7,65.7z"/>
<path class="st0" d="M727.2,60.6c16-0.4,33,0.9,47.5,8.2c0.9,0.4,1.8,0.9,2.7,1.3c9.3,5.1,16,12.5,19.3,22.7
	c0.9,3.8,1.1,7.3,1.1,11.3c0,1.2,0,2.5,0,3.8c0,1.3,0,2.7,0,4c0,1.4,0,2.8,0,4.1c0,3.6,0,7.3,0,10.9c0,3.7,0,7.4,0,11.1
	c0,7.3,0,14.5,0,21.8c-16.5,0-33,0-50,0c0-4.1-0.1-8.2-0.1-12.5c0-3.3-0.1-6.6-0.1-9.9c0-3.5-0.1-6.9-0.1-10.4c0-4-0.1-8-0.1-12
	c0-1.2,0-2.5,0-3.8c-0.1-8.2-0.1-8.2-3.5-15.5c-5.3-4.1-11.6-3.5-18-3c-3.5,0.4-3.5,0.4-6,2c-2,4.6-2.3,8.8-2.3,13.7
	c0,0.8,0,1.5,0,2.3c0,2.5,0,5,0,7.6c0,1.8,0,3.6,0,5.4c0,4.9,0,9.8,0,14.7c0,4.1,0,8.2,0,12.3c0,9.7,0,19.4,0,29.1c0,10,0,20,0,30
	c0,8.6,0,17.2,0,25.7c0,5.1,0,10.2,0,15.4c0,4.8,0,9.6,0,14.5c0,1.8,0,3.5,0,5.3c0,2.4,0,4.8,0,7.2c0,1,0,1,0,2.1
	c0.1,5,1.1,8.4,3.4,12.7c3.7,2.5,6.6,2.3,10.9,2.3c0.7,0,1.4,0,2.2,0c5.4,0.1,5.4,0.1,9.9-2.3c3.5-7.2,3.5-13.8,3.5-21.7
	c0-1.9,0-1.9,0.1-3.9c0-3.4,0.1-6.9,0.1-10.3c0-3.5,0.1-7,0.1-10.5c0.1-6.9,0.1-13.7,0.2-20.6c16.5,0,33,0,50,0
	c0.1,15.5,0.1,15.5,0.1,22.2c0,4.5,0,9.1,0.1,13.6c0,3.7,0.1,7.3,0.1,11c0,1.4,0,2.8,0,4.2c0.2,14-1.6,23.9-11.3,34.1
	c-17.3,16.6-42.9,16.5-65.4,16.1c-16.8-0.4-33.5-5-45.6-17.2c-9.6-11.3-9.4-23.9-9.4-38c0-1.9,0-3.8,0-5.7c0-5.2,0-10.4,0-15.5
	c0-4.3,0-8.7,0-13c0-10.2,0-20.5,0-30.7c0-10.5,0-21.1,0-31.6c0-9.1,0-18.1,0-27.2c0-5.4,0-10.8,0-16.2c0-5.1,0-10.2,0-15.2
	c0-1.9,0-3.7,0-5.6c-0.1-14.5,1.4-23.9,11.9-34.8c3.6-3.3,7.2-5.4,11.6-7.4c0.7-0.4,1.4-0.7,2.1-1.1
	C702.7,62.2,715.1,61.1,727.2,60.6z"/>
<path class="st0" d="M1210.7,66.7c37,0,73.9,0,112,0c0,10.9,0,21.8,0,33c-20.5,0-40.9,0-62,0c0,21.4,0,42.9,0,65c19.8,0,39.6,0,60,0
	c0,11.2,0,22.4,0,34c-19.8,0-39.6,0-60,0c0,40.6,0,81.2,0,123c-16.5,0-33,0-50,0C1210.7,237.6,1210.7,153.4,1210.7,66.7z"/>
<path class="st1" d="M1639.7,65.7c45.5,0,91.1,0,138,0c0,11.2,0,22.4,0,34c-14.5,0-29,0-44,0c0,73.3,0,146.5,0,222
	c-16.5,0-33,0-50,0c0-73.3,0-146.5,0-222c-14.5,0-29,0-44,0C1639.7,88.5,1639.7,77.3,1639.7,65.7z"/>
<path class="st2" d="M508.7,179.7c16.8,0,33.7,0,51,0c0,7.8,0.1,15.6,0.1,23.7c0,4.9,0.1,9.9,0.1,14.8c0.1,7.9,0.1,15.7,0.2,23.6
	c0,6.3,0.1,12.7,0.1,19c0,2.4,0,4.8,0,7.3c0,3.4,0,6.8,0.1,10.1c0,1,0,2,0,3c0,0.9,0,1.8,0,2.8c0,0.8,0,1.6,0,2.4
	c0.3,2.5,1,4.1,2.3,6.2c4.9,3.1,10.3,3.5,16,3c3.7-1.1,6.1-2,8.7-5c2-4.5,1.8-8.7,1.8-13.5c0-1.1,0-2.1,0-3.2c0-3.5,0-7,0-10.4
	c0-2.4,0-4.8,0.1-7.2c0-6.4,0.1-12.7,0.1-19.1c0-7.6,0.1-15.2,0.1-22.9c0.1-11.6,0.1-23.2,0.2-34.7c16.5,0,33,0,50,0
	c0.2,27.7,0.2,27.7,0.2,39.6c0,8.1,0.1,16.2,0.1,24.2c0.1,6.5,0.1,13,0.1,19.5c0,2.5,0,5,0.1,7.4c0.3,29.2,0.3,29.2-10.6,40.5
	c-18.5,16.7-45.4,16.9-68.9,15.7c-16.5-1.2-32.4-6.3-43.8-18.9c-6.9-9.7-8.5-19.2-8.4-31c0-1.1,0-2.1,0-3.2c0-3.5,0-6.9,0-10.4
	c0-2.4,0-4.8,0-7.2c0-6.3,0-12.6,0-19c0-7.6,0-15.2,0-22.8C508.6,202.8,508.7,191.3,508.7,179.7z"/>
<path d="M1415.3,93c3.8,2.7,5.6,5.2,6.4,9.8c0.1,2.5,0.1,4.9,0.1,7.3c0,0.7,0,1.5,0,2.2c0,2.5,0,5,0,7.5c0,1.8,0,3.6,0,5.3
	c0,4.8,0,9.7,0,14.5c0,3,0,6,0,9.1c0,9.5,0,18.9,0,28.4c0,10.9,0,21.8,0.1,32.8c0,8.4,0,16.9,0,25.3c0,5,0,10.1,0,15.1
	c0,4.7,0,9.5,0,14.2c0,1.7,0,3.5,0,5.2c0,2.4,0,4.8,0,7.1c0,0.7,0,1.4,0,2.1c-0.1,5.2-1.3,9.1-3.4,13.8c-3.9,3.5-8,3.5-13,3.4
	c-0.7,0-1.4,0-2.1,0.1c-3.5,0-5.7-0.4-8.8-2.2c-4.2-4.7-4.4-10-4.4-16.1c0-0.8,0-1.5,0-2.3c0-2.5,0-5,0-7.6c0-1.8,0-3.6,0-5.4
	c0-4.9,0-9.8,0-14.8c0-4.1,0-8.2,0-12.3c0-9.7,0-19.4,0-29.1c0-10,0-20,0-30c0-8.6,0-17.2,0-25.8c0-5.1,0-10.3,0-15.4
	c0-4.8,0-9.6,0-14.5c0-1.8,0-3.5,0-5.3c0-2.4,0-4.8,0-7.2c0-0.7,0-1.4,0-2.1c0.1-4.6,1-7.7,3.4-11.6
	C1399.7,90.1,1408.4,90.6,1415.3,93z"/>
<path d="M899.3,92.9c3.1,2.4,4,4.3,5.4,7.9c0.3,2.7,0.4,5.1,0.4,7.7c0,0.8,0,1.5,0,2.3c0,2.5,0,5.1,0,7.6c0,1.8,0,3.7,0,5.5
	c0,5,0,9.9,0,14.9c0,5.2,0,10.4,0,15.5c0,8.7,0,17.4,0,26.1c0,10.1,0,20.1,0,30.2c0,9.7,0,19.4,0,29c0,4.1,0,8.2,0,12.4
	c0,4.8,0,9.7,0,14.5c0,1.8,0,3.6,0,5.3c0,2.4,0,4.9,0,7.3c0,0.7,0,1.4,0,2.1c0,5.3-0.8,8.9-4.4,12.8c-3.7,2.2-6.7,2.3-10.9,2.2
	c-0.7,0-1.4,0-2.1,0c-4.4-0.1-7.5-0.6-10.9-3.5c-2.2-4.2-2.3-8.1-2.3-12.7c0-0.8,0-1.5,0-2.3c0-2.6,0-5.1,0-7.7c0-1.8,0-3.7,0-5.5
	c0-5,0-10,0-15c0-4.2,0-8.4,0-12.5c0-9.9,0-19.7,0-29.6c0-10.2,0-20.4,0-30.5c0-8.7,0-17.5,0-26.2c0-5.2,0-10.4,0-15.7
	c0-4.9,0-9.8,0-14.7c0-1.8,0-3.6,0-5.4c0-2.5,0-4.9,0-7.4c0-0.7,0-1.4,0-2.2c0-4.4,0.7-7.1,3.4-10.5
	C883.8,90.2,892.2,90.7,899.3,92.9z"/>
<path class="st2" d="M508.7,65.7c16.8,0,33.7,0,51,0c0,22.8,0,45.5,0,69c-16.8,0-33.7,0-51,0C508.7,112,508.7,89.2,508.7,65.7z"/>
<path class="st3" d="M589.7,66.7c16.5,0,33,0,50,0c0,22.4,0,44.9,0,68c-16.5,0-33,0-50,0C589.7,112.3,589.7,89.9,589.7,66.7z"/>
<path class="st4" d="M1548.7,96.7c22.5,0,22.5,0,28.1,4.8c3,5,2.5,10,2.4,15.7c0,1.2,0,2.4,0,3.7c0,2.6,0,5.2,0,7.7
	c0,3.9,0,7.9,0,11.8c0,2.5,0,5,0,7.5c0,1.2,0,2.4,0,3.6c-0.1,10.3-0.1,10.3-3.4,15.1c-8,7.6-15.1,5-27,5
	C1548.7,147,1548.7,122.2,1548.7,96.7z"/>
<path class="st3" d="M508.7,144.7c16.8,0,33.7,0,51,0c0,7.9,0,15.8,0,24c-16.8,0-33.7,0-51,0C508.7,160.8,508.7,152.9,508.7,144.7z"
	/>
<path class="st3" d="M589.7,144.7c16.5,0,33,0,50,0c0,7.9,0,15.8,0,24c-16.5,0-33,0-50,0C589.7,160.8,589.7,152.9,589.7,144.7z"/>
<path class="st5" d="M508.7,179.7c16.8,0,33.7,0,51,0c0,35.3,0,70.6,0,107c-1-0.3-2-0.7-3-1c-0.3-34.3-0.7-68.6-1-104
	c-14.5,0-29,0-44,0c0.1,14.8,0.2,29.5,0.3,44.3c0.1,6.9,0.1,13.7,0.2,20.6c0,6.6,0.1,13.2,0.2,19.8c0,2.5,0,5,0.1,7.6
	c0,3.5,0.1,7.1,0.1,10.6c0,1,0,2.1,0,3.2c0,4.8,0.2,9.3,1.2,14c-5.3-5.3-5.3-15.3-5.4-22.3c0-1,0-1.9,0-2.9c0-1.1,0-2.1,0-3.2
	c0-3.4,0-6.9,0-10.3c0-2.4,0-4.8,0-7.2c0-6.3,0-12.6,0.1-18.9c0-7.6,0-15.1,0.1-22.7C508.6,202.7,508.7,191.2,508.7,179.7z"/>
<path class="st6" d="M508.7,65.7c16.8,0,33.7,0,51,0c0,22.8,0,45.5,0,69c-16.8,0-33.7,0-51,0C508.7,112,508.7,89.2,508.7,65.7z
	 M510.7,68.7c0,21.1,0,42.2,0,64c10,0.1,10,0.1,20.2,0.1c2.1,0,4.2,0,6.3,0.1c1.7,0,3.3,0,5,0c0.9,0,1.7,0,2.6,0c0.8,0,1.7,0,2.5,0
	c0.7,0,1.4,0,2.2,0c2.7-0.2,2.7-0.2,7.2-2.2c0-20.5,0-40.9,0-62C541.5,68.7,526.3,68.7,510.7,68.7z"/>
<path class="st7" d="M589.7,179.7c16.5,0,33,0,50,0c0.1,28.1,0.1,28.1,0.1,40c0,8.2,0,16.3,0.1,24.5c0,6.6,0,13.1,0,19.7
	c0,2.5,0,5,0,7.5c0,3.5,0,7,0,10.5c0,1,0,2.1,0,3.2c0,1,0,1.9,0,2.9c0,0.8,0,1.7,0,2.5c-0.2,2.1-0.2,2.1-2.2,5.1
	c0-37.6,0-75.2,0-114c-24.7-4.1-24.7-4.1-45,2c-0.1,3.2-0.2,6.3-0.2,9.5c0,1,0,2,0,3c0,2.2,0,4.3,0,6.5c0,3.4,0,6.9-0.1,10.3
	c-0.1,9.8-0.1,19.5-0.1,29.3c0,6-0.1,11.9-0.1,17.9c0,2.3,0,4.6,0,6.8c0,3.2,0,6.4-0.1,9.6c0,0.9,0,1.9,0,2.8
	c-0.1,5.2-0.6,8.7-3.4,13.3c-1,0-2,0-3,0c0.5-0.6,1-1.2,1.5-1.8c2.2-4.5,2-8.7,2-13.6c0-1.6,0-1.6,0-3.2c0-3.5,0-7,0-10.4
	c0-2.4,0-4.8,0.1-7.2c0-6.4,0.1-12.7,0.1-19.1c0-7.6,0.1-15.2,0.1-22.9C589.6,202.9,589.6,191.3,589.7,179.7z"/>
<path class="st8" d="M589.7,66.7c16.5,0,33,0,50,0c0,22.4,0,44.9,0,68c-16.5,0-33,0-50,0C589.7,112.3,589.7,89.9,589.7,66.7z
	 M591.7,67.7c0,21.4,0,42.9,0,65c15.5,0,31,0,47,0c0-11.4,0-11.4,0-22.7c0-4.6,0-9.3,0-13.9c0-3.7,0-7.5,0-11.2c0-1.4,0-2.9,0-4.3
	c0-2,0-4,0-6c0-1.1,0-2.3,0-3.4c0.2-2.5,0.2-2.5-1.1-3.5c-1.4-0.1-2.9-0.1-4.3-0.1c-1.4,0-1.4,0-2.8,0c-1.5,0-1.5,0-3,0
	c-0.9,0-1.8,0-2.7,0c-3.4,0-6.8,0-10.2,0C603.3,67.7,603.3,67.7,591.7,67.7z"/>
<path class="st9" d="M508.7,144.7c16.8,0,33.7,0,51,0c0,7.9,0,15.8,0,24c-16.8,0-33.7,0-51,0C508.7,160.8,508.7,152.9,508.7,144.7z
	 M510.7,146.7c0,6.6,0,13.2,0,20c15.5,0,31,0,47,0c0-6.6,0-13.2,0-20C542.2,146.7,526.7,146.7,510.7,146.7z"/>
<path class="st10" d="M589.7,144.7c16.5,0,33,0,50,0c0,7.9,0,15.8,0,24c-16.5,0-33,0-50,0C589.7,160.8,589.7,152.9,589.7,144.7z
	 M591.7,146.7c0,6.6,0,13.2,0,20c15.2,0,30.4,0,46,0c0-6.6,0-13.2,0-20C622.5,146.7,607.3,146.7,591.7,146.7z"/>
<path class="st11" d="M587.7,65.7c17.5,0,35,0,53,0c0,22.8,0,45.5,0,69c-0.3,0-0.7,0-1,0c0-22.4,0-44.9,0-68c-16.5,0-33,0-50,0
	c0,22.4,0,44.9,0,68c-0.7,0-1.3,0-2,0c-0.7-4.6-1.1-8.9-1-13.5c0-1.2,0-2.5,0.1-3.8c0-1.3,0.1-2.7,0.1-4c0-1.4,0-2.8,0.1-4.1
	c0.1-3.6,0.1-7.2,0.2-10.8c0.1-3.7,0.1-7.4,0.2-11.1C587.4,80.2,587.6,73,587.7,65.7z"/>
<path class="st12" d="M519.7,309.7c2.9,1,4.9,1.9,7.3,3.9c7.7,5.8,18.3,7.8,27.7,9.1c0,0.7,0,1.3,0,2c13.5,0,27.1,0,41,0
	c0,0.3,0,0.7,0,1c-22.2,4-50.5,3-69.9-9.9c-2.1-1.6-4.2-3.2-6.1-5.1C519.7,310.4,519.7,310.1,519.7,309.7z"/>
<path class="st13" d="M535.4,176.6c2.2,0,4.4,0,6.7,0c1.4,0,2.9,0,4.3,0c1.3,0,2.5,0,3.9,0c3.5,0.2,6.3,1,9.5,2.2c0,0.3,0,0.7,0,1
	c-16.8,0-33.7,0-51,0c0-0.7,0-1.3,0-2C517.6,176.8,526.4,176.6,535.4,176.6z"/>
<path class="st14" d="M559.7,179.7c0.3,0,0.7,0,1,0c0,1.3,0,2.6,0,4c0.1,12.4,0.2,24.8,0.3,37.2c0,6.4,0.1,12.8,0.1,19.1
	c0,6.2,0.1,12.3,0.1,18.5c0,2.3,0,4.7,0,7c0,3.3,0,6.6,0.1,9.9c0,1,0,1.9,0,2.9c0,6.4,0,6.4,2.3,12.3c1,0.3,2,0.7,3,1c0,1,0,2,0,3
	c-4.7-1.5-4.7-1.5-6.1-3.8c-0.9-2.4-1.1-4.2-1.1-6.8c0-0.9,0-1.8,0-2.8c0-1.5,0-1.5,0-3c0-1.6,0-1.6,0-3.2c0-3.5,0-7,0-10.6
	c0-2.4,0-4.9,0-7.3c0-6.4,0-12.8,0-19.3c0-6.5,0-13.1,0-19.6C559.6,205.4,559.7,192.6,559.7,179.7z"/>
<path class="st15" d="M627.7,308.7c1,0.3,2,0.7,3,1c-13.3,11-13.3,11-19,11c0.3-1.9,0.3-1.9,1-4c1.8-1,1.8-1,4-2
	c0.8-0.4,1.5-0.7,2.3-1.1c1.2-0.5,1.2-0.5,2.3-1.1c0.8-0.4,1.6-0.7,2.4-1.1c2-0.8,2-0.8,4-0.8C627.7,310.1,627.7,309.4,627.7,308.7z
	"/>
<path class="st16" d="M638.7,292.7c0.3,0,0.7,0,1,0c0.4,6.1-0.9,10.5-4.8,15.2c-3.5,3.7-6.3,6.2-11.2,7.8c0.7-0.7,1.4-1.3,2.1-2
	C632,307.5,635.8,301.1,638.7,292.7z"/>
<path class="st17" d="M561.7,292.7c0.6,0.2,1.1,0.4,1.7,0.7c8,2.9,14.2,3.1,22.3,0.3c-0.8,1.9-0.8,1.9-2,4
	c-7.3,2.4-13.6,1.2-20.4-2.1c-0.5-0.3-1.1-0.6-1.6-0.9C561.7,294.1,561.7,293.4,561.7,292.7z"/>
<path class="st18" d="M610.7,320.7c-3.4,3.4-8.3,3.9-13,4.1c-0.7,0-1.3-0.1-2-0.1c0-0.7,0-1.3,0-2
	C600.8,321.5,605.4,320.5,610.7,320.7z"/>
<path class="st19" d="M513.7,301.7c4.9,0.9,4.9,0.9,6,2c0,2,0,4,0,6C514.8,305.1,514.8,305.1,513.7,301.7z"/>
<path class="st20" d="M559.7,282.7c2,3,2,3,2.9,5.6c0.4,0.8,0.7,1.6,1.1,2.4c1,0.3,2,0.7,3,1c0,1,0,2,0,3c-4.6-1.4-4.6-1.4-6.3-3.8
	C559.5,288.2,559.6,285.7,559.7,282.7z"/>
<path class="st21" d="M1589.7,183.7c0,1,0,2,0,3c-3.3-0.3-6.6-0.7-10-1C1583.3,183.3,1585.4,183.6,1589.7,183.7z"/>
<path class="st22" d="M221.7,12.3c1.7,0.7,1.7,0.7,3.5,1.7c0.3,0.2,0.7,0.3,1,0.5c1.1,0.6,2.1,1.1,3.2,1.7c0.8,0.4,1.5,0.8,2.3,1.2
	c4.8,2.5,9.6,5.1,14.4,7.8c4.9,2.7,10,5.3,15,7.9c5.2,2.7,10.4,5.4,15.6,8.3c4.9,2.7,9.9,5.3,14.9,7.8c4.7,2.4,9.4,4.9,14,7.4
	c5.2,2.9,10.6,5.6,15.9,8.4c5.9,3,11.7,6.1,17.5,9.3c4.1,2.3,8.2,4.4,12.4,6.5c4.7,2.4,9.3,4.9,13.9,7.4c7,3.9,14.1,7.5,21.2,11.1
	c3,1.5,5.9,3.1,8.8,4.6c6.1,3.2,12.3,6.4,18.4,9.6c0,64.2,0,128.3,0,194.4c-2.4-0.8-4.4-1.5-6.6-2.6c-0.6-0.3-1.2-0.6-1.8-0.9
	c-0.6-0.3-1.2-0.6-1.9-0.9c-0.6-0.3-1.3-0.6-2-0.9c-3.7-1.8-7.4-3.6-11.1-5.5c-5.6-2.8-11.4-5.6-17-8.3c-2.5-1.2-5.1-2.4-7.6-3.7
	c-0.3-0.2-0.7-0.3-1.1-0.5c-0.7-0.3-1.4-0.7-2.1-1c-5-2.4-10-4.8-15.1-7.2c-4.8-2.3-9.7-4.7-14.5-7.1c-2.9-1.5-5.8-2.9-8.8-4.2
	c-4.9-2.3-9.8-4.7-14.7-7.2c-9.9-5-19.9-9.9-30-14.6c-5.8-2.7-11.5-5.5-17.2-8.4c-7.3-3.7-14.7-7.4-22.1-10.9
	c-2.8-1.3-5.6-2.7-8.4-4.1c-0.6-0.3-1.1-0.6-1.7-0.9c-1.1-0.6-2.2-1.1-3.2-1.7c-0.5-0.2-1-0.5-1.5-0.8c-0.4-0.2-0.8-0.4-1.3-0.7
	c-0.5-0.2-0.9-0.4-1.4-0.6c-0.6-0.3-1.2-0.5-1.8-0.8c-3.1-0.5-4.9,0.6-7.6,2c-0.5,0.3-1,0.5-1.6,0.8c-1.7,0.8-3.4,1.7-5.1,2.6
	c-1.2,0.6-2.4,1.2-3.5,1.8c-2.4,1.2-4.7,2.4-7.1,3.6c-3.8,1.9-7.6,3.8-11.4,5.6c-1.9,0.9-3.7,1.8-5.6,2.7c-0.4,0.2-0.8,0.4-1.2,0.6
	c-6.9,3.4-13.9,6.8-20.8,10.2c-7.5,3.7-15.1,7.4-22.7,11c-8.6,4.2-17.2,8.4-25.8,12.6c-10.2,5-20.5,10-30.8,14.9
	c-4.2,2-8.3,4-12.4,6.1c-9.3,4.7-18.6,9.3-28.1,13.8c-1.5,0.7-3,1.4-4.5,2.1c-0.9,0.4-1.8,0.9-2.7,1.3c-0.4,0.2-0.8,0.4-1.2,0.6
	c-2.8,1.3-2.8,1.3-3.4,1.3c0-64.2,0-128.3,0-194.4c6.3-3.2,12.5-6.5,19-9.8c4.7-2.6,4.7-2.6,9.4-5.2c4.2-2.3,8.4-4.4,12.6-6.6
	c4.5-2.3,9-4.7,13.4-7.1c6.1-3.4,12.4-6.6,18.6-9.8c4.4-2.3,8.8-4.6,13.1-7.1c2-1.1,4-2.2,6-3.1c8.1-4,16.2-8.2,24.1-12.6
	c5.8-3.2,11.6-6.2,17.4-9.2c5.4-2.8,10.7-5.6,16-8.5c5.7-3.1,11.4-6,17.2-8.9c4.1-2.1,8.1-4.3,12.1-6.6c2.1-1.2,4.2-2.3,6.4-3.3
	c3-1.4,3-1.4,5.8-3.2C218.8,11.4,219.7,11.8,221.7,12.3z"/>
<path class="st3" d="M219.4,11.7c0.4,37.6,0.6,75.3,0.6,112.9c0,0.4,0,0.8,0,1.2c0,29.3-0.2,58.6-0.6,87.8c-1.4,0.7-2.7,1.5-4.1,2.2
	c-0.6,0.3-0.6,0.3-1.2,0.6c-3.3,1.7-6.6,3.4-9.9,4.9c-0.8,0.4-0.8,0.4-1.7,0.8c-3,1.4-5.9,2.8-8.9,4.2c-4.6,2.1-9.1,4.4-13.6,6.7
	c-11.1,5.6-22.2,11.1-33.5,16.3c-4.6,2.1-9.1,4.4-13.7,6.7c-11.1,5.6-22.2,11.1-33.5,16.3c-0.4,0.2-0.8,0.4-1.2,0.6
	c-0.4,0.2-0.8,0.4-1.2,0.6c-3.1,1.4-6.1,2.9-9.1,4.5c-3,1.5-6,2.9-9,4.4c-4.5,2.1-8.9,4.3-13.3,6.5c-9.3,4.7-18.6,9.3-28,13.8
	c-1.5,0.7-3,1.4-4.5,2.1c-0.9,0.4-1.8,0.9-2.7,1.3c-0.4,0.2-0.8,0.4-1.2,0.6c-2.8,1.3-2.8,1.3-3.4,1.3c0-64.2,0-128.3,0-194.4
	c6.3-3.2,12.5-6.5,19-9.8c4.7-2.6,4.7-2.6,9.4-5.2c4.2-2.3,8.4-4.4,12.6-6.6c4.5-2.3,9-4.7,13.4-7.1c6.1-3.4,12.4-6.6,18.6-9.8
	c4.4-2.3,8.8-4.6,13.1-7.1c2-1.1,4-2.2,6-3.1c8.1-4,16.2-8.2,24.1-12.6c5.8-3.2,11.6-6.2,17.4-9.2c5.4-2.8,10.7-5.6,16-8.5
	c5.7-3.1,11.4-6,17.2-8.9c4.1-2.1,8.1-4.3,12.1-6.6c2.1-1.2,4.2-2.3,6.4-3.3c2-1,4.1-2,6-3.2C218.3,11.7,218.3,11.7,219.4,11.7z"/>
<path class="st23" d="M331.6,90.5c0.9,0,0.9,0,1.8,0.1c14.7,0.9,29.5,7.4,40.8,16.6c0.4,0.3,0.9,0.7,1.3,1c3.9,3.1,6.6,7.3,7.3,12.2
	c0.3,5.9-1.1,11.1-5.1,15.5c-4.5,4.2-8.7,5.6-14.8,5.5c-5.9-0.3-10-3.2-14.4-6.8c-8.7-6.5-19.7-7.4-30.3-6
	c-9.9,1.9-18.4,8.3-24,16.5c-4,6.8-6.1,13.3-6,21.2c0,0.9,0,0.9,0,1.8c0.2,10.5,4.3,19.1,11.7,26.5c0.5,0.5,0.5,0.5,1,1.1
	c7.1,7,17.2,9.6,26.8,9.5c8.6-0.2,16.3-3.2,23.2-8.4c5-3.7,9.5-4.6,15.7-4.1c4.6,0.7,8.4,3.4,11.3,7c3.3,5,4.6,10.2,3.3,16.1
	c-3.1,9.7-12.8,14.9-21.3,19.4c-4.9,2.5-9.9,4.1-15.2,5.5c-0.4,0.1-0.8,0.2-1.1,0.3c-11.7,3-25.9,2.6-37.4-0.9
	c-0.4-0.1-0.8-0.2-1.2-0.3c-11.2-3.3-21.2-9.1-29.9-16.9c-0.3-0.3-0.6-0.5-0.9-0.8c-12.9-11.7-21.1-28.6-23.3-45.8
	c-0.9-19.8-0.9-19.8,1.7-28.8c0.1-0.4,0.3-0.9,0.4-1.4c3.8-12.7,10.1-23,19.2-32.6c0.4-0.4,0.7-0.8,1.1-1.2
	c10.1-10.6,24.7-18.2,39.2-20.7c0.6-0.1,1.2-0.2,1.9-0.4C320.2,90.3,325.8,90.3,331.6,90.5z"/>
<path class="st24" d="M79.2,96.5c0.4,0,0.9,0,1.3,0c0.9,0,1.9,0,2.8,0c1.4,0,2.8,0,4.3,0c0.9,0,1.8,0,2.7,0c0.6,0,0.6,0,1.3,0
	c3.1,0.1,5,0.9,7.6,2.6c2,2.3,2.4,4.2,2.4,7.2c0,0.7,0,1.3,0,2c0,0.7,0,1.4,0,2.2c0,1.2,0,2.3,0,3.5c0,1.3,0,2.5,0,3.8
	c0,2.6,0,5.2,0,7.8c0,0.4,0,0.9,0,1.3c0,0.9,0,1.8,0,2.7c0,6.1,0,12.2,0,18.3c0,4.1,0,8.2,0,12.3c0,2.2,0,4.3,0,6.5c0,2,0,4.1,0,6.1
	c0,1.1,0,2.2,0,3.3c0.1,4.9,1.2,8.1,3.9,12.1c0.4,0.6,0.7,1.1,1.1,1.7c5.3,6.7,12.2,11.1,20.7,12.1c8.9,0.8,18.5-2,25.5-7.6
	c2.6-2.4,4.4-5.4,6.1-8.5c0.3-0.4,0.6-0.9,0.9-1.3c1.3-3.2,1.1-6.4,1-9.8c0-0.8,0-1.6,0-2.3c0-1.7,0-3.4,0-5c0-2.7,0-5.3,0-8
	c0-6.6,0-13.2,0-19.8c0-5.1,0-10.3,0-15.4c0-2.6,0-5.3,0-7.9c0-1.6,0-3.3,0-4.9c0-1.1,0-2.2,0-3.4c0.1-6.2,0.1-6.2,2.6-8.9
	c2.8-2.4,4.9-2.6,8.4-2.6c0.7,0,0.7,0,1.4,0c1,0,2,0,3,0c1.5,0,3,0,4.5,0c1,0,1.9,0,2.9,0c0.4,0,0.9,0,1.4,0
	c3.2,0.1,5.5,0.9,7.7,3.3c1.2,1.9,1.3,3.4,1.3,5.6c0,0.7,0,1.4,0,2.1c0,0.7,0,1.5,0,2.3c0,0.8,0,1.6,0,2.4c0,2.2,0,4.3,0,6.5
	c0,1.8,0,3.6,0,5.4c0,4.3,0,8.6,0,12.8c0,4.4,0,8.8,0,13.2c0,3.8,0,7.6,0,11.3c0,2.3,0,4.5,0,6.8c0.1,21.7,0.1,21.7-3.7,31.5
	c-0.2,0.5-0.3,0.9-0.5,1.4c-2.7,6.9-6.9,12.6-12.1,17.8c-0.4,0.4-0.8,0.9-1.3,1.3c-5.7,5.5-13.1,9.2-20.6,11.9
	c-0.5,0.2-1.1,0.4-1.6,0.6c-13.6,4.6-28.2,5.4-42.1,2.3c-0.7-0.2-1.4-0.3-2.1-0.5c-8-2-15.1-5.9-21.5-11c-0.4-0.3-0.8-0.6-1.2-0.9
	c-8.8-7.1-14.4-18.3-17.2-29c-0.1-0.5-0.3-1-0.4-1.6c-1.2-4.8-1.5-9.4-1.5-14.4c0-0.8,0-1.6,0-2.5c0-2.2,0-4.4,0-6.6
	c0-1.8,0-3.7,0-5.5c0-4.3,0-8.7,0-13c0-4.5,0-8.9,0-13.4c0-3.8,0-7.7,0-11.5c0-2.3,0-4.6,0-6.9c0-2.2,0-4.3,0-6.5c0-1.2,0-2.3,0-3.5
	c0.1-6.4,0.1-6.4,2.6-9.1C73.7,96.9,75.9,96.5,79.2,96.5z"/>
<path class="st25" d="M227.5,245.2c5.3,3.8,9.4,9.5,10.7,16c0.4,3.1,0.4,6.1,0.4,9.2c0,1.2,0,2.3,0,3.5c0,0.7,0,1.5,0,2.2
	c0,0.7,0,1.3,0,2c-0.1,1.6-0.1,1.6-1.3,2.8c-1.2,0.1-1.2,0.1-2.7,0.1c-0.5,0-0.9,0-1.4,0c-0.4,0-0.7,0-1.1,0c0-0.8,0-0.8,0-1.6
	c0-2-0.1-4-0.1-6c0-0.9,0-1.7,0-2.6c-0.1-6.6-0.1-6.6-2.1-12.8c-0.3-0.7-0.3-0.7-0.7-1.4c-2.6-4.2-6.5-7.1-11.3-8.6
	c-6.5-1.2-12.6-0.6-18.2,2.9c-4.6,3.3-7,7.5-8.3,12.9c-0.2,2.1-0.3,4.2-0.3,6.3c0,0.9,0,0.9,0,1.8c0,1.8-0.1,3.7-0.1,5.5
	c0,1.3,0,2.5-0.1,3.8c0,3.1-0.1,6.1-0.1,9.2c2.1-0.2,4.2-0.4,6.3-0.6c0-0.8,0-1.5,0-2.3c0-2.9,0-5.8,0.1-8.7c0-1.2,0-2.5,0-3.7
	c0-1.8,0-3.6,0.1-5.4c0-0.6,0-1.1,0-1.7c0.1-4.5,1.4-7.9,4.6-11.2c0.4-0.3,0.9-0.6,1.3-0.9c0.4-0.3,0.9-0.6,1.3-1
	c3.3-2,7.3-1.7,11-1.3c4.3,1.2,7,3.6,9.2,7.5c1.4,2.7,1.3,5.3,1.3,8.3c0,0.5,0,1.1,0,1.7c0,1.8,0,3.6,0,5.4c0,1.2,0,2.5,0,3.7
	c0,3.3,0,6.6,0,9.8c0,3.3,0,6.7,0,10c0,6.6,0,13.1-0.1,19.7c1.9,0,3.8,0,5.8,0c0.7-1.5,0.7-2.5,0.7-4.1c0-0.6,0-1.2,0-1.9
	c0-0.7,0-1.3,0-2c0-1,0-1,0-2.1c0-2.2,0.1-4.4,0.1-6.6c0-1.5,0-3,0.1-4.5c0.1-3.7,0.1-7.3,0.2-11c1.9,0,3.8,0,5.8,0
	c0,0.6,0,0.6,0,1.2c0.1,4.1,0.1,8.2,0.2,12.3c0,1.5,0,3.1,0.1,4.6c0,2.2,0.1,4.4,0.1,6.6c0,1,0,1,0,2.1c0,0.6,0,1.3,0,1.9
	c0,0.6,0,1.1,0,1.7c0,1.3,0,1.3,0.7,1.8c0.8,0.1,1.6,0.1,2.4,0.1c0.5,0,1,0,1.5,0c0.8,0,0.8,0,1.6,0c0.5,0,1,0,1.6,0
	c0.7,0,0.7,0,1.5,0c0.5,0,0.9,0,1.4,0c1.1,0,1.1,0,1.6-0.6c0.1-0.8,0.1-1.6,0.2-2.4c0-0.4,0-0.9,0.1-1.3c0-0.6,0-1.1,0.1-1.7
	c0.1-1.8,0.2-3.6,0.3-5.4c6.1,0,12.1,0,18.4,0c0,1.9,0,3.8,0,5.8c-5.7,0.3-5.7,0.3-11.5,0.6c0,1.7,0,3.4,0,5.2c0.6,0,0.6,0,1.1,0
	c3.9,0,7.8,0.1,11.7,0.1c1.5,0,2.9,0,4.4,0c2.1,0,4.2,0,6.3,0.1c0.6,0,1.3,0,2,0c3.7,0.1,6.1,0.4,9.1,2.6c2,2.1,2.8,3.6,3,6.5
	c-0.2,3.1-1,5.3-3.3,7.5c-2.6,1.7-4.2,2.3-7.3,2.3c-0.7,0-1.4,0-2.2,0c-0.8,0-1.6,0-2.4,0c-0.8,0-1.7,0-2.5,0c-2.3,0-4.6,0-6.8,0
	c-2.4,0-4.8,0-7.1,0c-4.5,0-9,0-13.5,0c-5.1,0-10.3,0-15.4,0c-10.6,0-21.1,0-31.7-0.1c0-2.1,0-4.2,0-6.3c27.9-0.2,55.8-0.4,84.6-0.6
	c0.2-0.9,0.4-1.9,0.6-2.9c-1.7-1.7-2.9-2.5-5.3-2.6c-1,0-2,0-3,0c-0.8,0-0.8,0-1.7,0c-1.8,0-3.7,0-5.5,0c-1.3,0-2.6,0-3.9,0
	c-3.6,0-7.1,0-10.7,0c-3.7,0-7.5,0-11.2,0c-6.3,0-12.5,0-18.8,0c-6.4,0-12.9,0-19.3,0c-7.8,0-15.5,0-23.3,0c-3,0-5.9,0-8.9,0
	c-3.5,0-7,0-10.5,0c-1.3,0-2.6,0-3.8,0c-1.7,0-3.5,0-5.2,0c-0.5,0-1,0-1.5,0c-2.8,0-2.8,0-5.3,1.1c-0.3,0.3-0.5,0.6-0.8,0.8
	c0.2,1.9,0.2,1.9,1.2,3.5c1.4,0.1,2.8,0.1,4.2,0.1c0.4,0,0.9,0,1.3,0c1.5,0,2.9,0,4.4,0c1,0,2,0,3.1,0c2.7,0,5.4,0.1,8.1,0.1
	c2.7,0,5.5,0.1,8.2,0.1c5.4,0.1,10.7,0.1,16.1,0.2c0,2.1,0,4.2,0,6.3c-10.3,0-20.5,0-31.1,0c1.6,9.6,4.9,17.3,12.7,23.6
	c4.3,2.9,8.7,5.2,13.8,6.3c0.4,0.1,0.8,0.2,1.2,0.3c2.1,0.4,4.3,0.4,6.4,0.4c0.5,0,0.9,0,1.4,0c1.6,0,3.1,0,4.7,0c0.5,0,1.1,0,1.6,0
	c2.9,0,5.7,0,8.6,0c2.9,0,5.9,0,8.8,0c2.3,0,4.5,0,6.8,0c1.1,0,2.2,0,3.2,0c8,0.1,16.2-0.1,23.5-3.9c0.4-0.2,0.8-0.4,1.2-0.6
	c6.6-3.7,10.3-8.9,13.7-15.5c1.7-3.1,1.7-3.1,2.8-4.3c3.4-0.3,3.4-0.3,5.2,0.6c-0.3,3.1-1.1,5.5-2.6,8.2c-0.2,0.4-0.4,0.8-0.6,1.1
	c-1.9,3.4-4.3,6.3-7.1,9c-0.4,0.4-0.8,0.8-1.3,1.3c-7.3,6.8-16.1,10.3-26,10.3c-0.5,0-1.1,0-1.6,0c-1.8,0-3.6,0-5.4,0
	c-1.2,0-2.5,0-3.7,0c-2.6,0-5.2,0-7.8,0c-3.3,0-6.7,0-10,0c-2.6,0-5.1,0-7.7,0c-1.2,0-2.5,0-3.7,0c-12.2,0.1-12.2,0.1-17.3-1.9
	c-0.5-0.2-1-0.3-1.5-0.5c-9.4-3.3-17.1-10.6-21.7-19.2c-2.3-4.7-3.6-9.8-5-14.8c-0.5,0-1.1,0-1.6-0.1c-1.1-0.1-1.1-0.1-2.2-0.1
	c-0.7,0-1.4-0.1-2.1-0.1c-3.7-0.5-6-2.1-8.4-4.9c-1.1-3.3-1.1-6.8,0.3-10c2.9-3.1,5.1-3.9,9.3-4.1c1.6,0,3.1,0,4.7,0
	c0.8,0,1.7,0,2.5,0c2.2,0,4.4,0,6.5,0c2.2,0,4.5,0,6.7-0.1c4.4,0,8.7-0.1,13.1-0.1c0.2-3.8,0.4-7.6,0.6-11.5c6.1,0,12.1,0,18.4,0
	c0,1.9,0,3.8,0,5.8c-4,0-8,0-12.1,0c0,2.1,0,4.2,0,6.3c8.2-0.2,16.3-0.4,24.7-0.6c0.1-9.7,0.1-9.7,0.1-19.5c0-4,0-7.9,0-11.9
	c0-3.2,0-6.4,0-9.6c0-1.2,0-2.4,0-3.7c0-1.7,0-3.4,0-5.1c0-0.5,0-1,0-1.5c0-2.7-0.2-4.5-1.9-6.7c-2.6-1.7-5-2.3-8.1-1.7
	c-2.6,1.2-3.8,2.4-4.8,5.1c-0.7,2.7-0.6,5.5-0.6,8.2c0,1,0,1,0,2c0,2.1-0.1,4.2-0.1,6.3c0,1.4,0,2.8-0.1,4.3
	c-0.1,3.5-0.1,7-0.1,10.4c-6.1,0-12.1,0-18.4,0c-0.1-4.4-0.1-8.7-0.1-13.1c0-2,0-4.1-0.1-6.1c0-2.3-0.1-4.7-0.1-7c0-1.1,0-1.1,0-2.2
	c0-6.9,1.9-12.8,6.5-18C201.1,239.5,215.4,237.6,227.5,245.2z"/>
<path class="st26" d="M220,11.7c2.1,0.9,4.2,1.9,6.3,2.9c-0.6,0.6-1.1,1.1-1.7,1.7c-1.3-0.2-2.2-0.5-3.5-1.2c0,65.5,0,131,0,198.4
	c0.4,0.2,0.8,0.4,1.2,0.6c-0.4,0.2-0.8,0.4-1.2,0.6c-0.6-0.4-1.1-0.8-1.7-1.2c-0.2-1.6-0.2-1.6-0.2-3.8c0-0.4,0-0.8,0-1.2
	c0-1.4,0-2.7,0-4.1c0-1,0-2,0-2.9c0-2.7,0-5.5,0-8.2c0-3,0-5.9,0-8.9c0-5.3,0-10.5,0.1-15.8c0-8.2,0.1-16.4,0.1-24.6
	c0.1-18,0.1-36,0.2-54c0-6,0-12,0.1-18c0-0.4,0-0.9,0-1.3c0-2.2,0-4.3,0-6.5C219.9,46.8,220,29.3,220,11.7z"/>
<path class="st27" d="M29.1,110.1c0.9,0,1.9,0,2.9,0c-1.5,1.7-3.1,2.5-5.2,3.5c-0.4,0-0.8,0-1.2,0c0.2,64,0.4,127.9,0.6,193.8
	c1.7-0.6,3.4-1.1,5.2-1.7c0,0.4,0,0.8,0,1.2c-2.7,1.5-3.7,1.7-6.9,1.7c0-64.5,0-129.1,0-195.6c2.3-1.2,2.3-1.2,4-1.2
	C28.7,111.2,28.9,110.6,29.1,110.1z"/>
<path class="st28" d="M218.3,11.7c0.4,0,0.8,0,1.2,0c0.4,37.6,0.6,75.3,0.6,112.9c0,0.4,0,0.8,0,1.2c0,29.3-0.2,58.6-0.6,87.8
	c-1.4,0.7-2.8,1.5-4.1,2.2c-0.4,0.2-0.8,0.4-1.2,0.6c-2.9,1.5-5.7,3-8.7,4.4c-0.4,0.2-0.8,0.4-1.3,0.6c-1,0.5-2.1,0.9-3.2,1.4
	c-0.4-0.2-0.8-0.4-1.2-0.6c0.6-0.2,1.1-0.4,1.7-0.6c0-0.4,0-0.8,0-1.2c0.8,0,1.5,0,2.3,0c0-0.4,0-0.8,0-1.2c0.8,0,1.5,0,2.3,0
	c0-0.4,0-0.8,0-1.2c0.8,0,1.5,0,2.3,0c0-0.4,0-0.8,0-1.2c0.8,0,1.5,0,2.3,0c0-0.4,0-0.8,0-1.2c0.4-0.1,0.9-0.2,1.3-0.3
	c1.3-0.3,2.6-0.6,3.9-0.9c0-0.4,0-0.8,0-1.2c0.9-0.2,1.9-0.4,2.9-0.6C218.7,146.6,218.5,80.1,218.3,11.7z"/>
<path class="st29" d="M218.9,12.3c0,66.2,0,132.5,0,200.7c-0.2,0-0.4,0-0.6,0c0-0.3,0-0.7,0-1c-0.1-20.1-0.1-40.3-0.2-60.4
	c0-2.4,0-4.9,0-7.3c0-0.7,0-0.7,0-1.5c0-7.8,0-15.6-0.1-23.3c0-8,0-16.1-0.1-24.1c0-4.5,0-9,0-13.5c-0.1-22.1-0.3-44.1-0.7-66.2
	c-2.5,0.7-5,1.4-7.4,2.3c-0.5,0.2-1.1,0.4-1.6,0.6c-1.4,0.5-1.4,0.5-1.9,1.7c-0.9,0-1.9,0-2.9,0c2.3-2,4.8-3.3,7.5-4.7
	c0.4-0.2,0.8-0.4,1.2-0.6c0.8-0.4,1.6-0.8,2.3-1.1c0.8-0.4,1.6-0.8,2.4-1.2C217.7,12.3,217.7,12.3,218.9,12.3z"/>
<path class="st30" d="M190.1,97.4c1.6,0.3,1.6,0.3,3.5,1.2c2.3,3.9,2,8.6,1.9,12.9c0,0.8,0,1.5,0,2.3c0,2.1,0,4.1,0,6.2
	c0,2.2,0,4.4,0,6.5c0,3.7,0,7.3,0,11c0,4.7,0,9.4,0,14c0,4,0,8.1,0,12.1c0,1.3,0,2.6,0,3.9c0,25.2,0,25.2-2.6,29.9
	c-0.4,0.7-0.7,1.4-1.1,2.1c-0.5,1-0.5,1-1,2c-0.6,1.6-1.2,3.1-1.8,4.7c-0.5,1-0.5,1-2.3,1.6c0.1-0.4,0.3-0.7,0.5-1.1
	c0.2-0.6,0.5-1.2,0.7-1.8c0.1-0.4,0.3-0.7,0.4-1.1c0.5-1.3,1-2.6,1.5-3.9c0.2-0.4,0.3-0.9,0.5-1.3c3.9-10.3,3.5-21.1,3.5-31.9
	c0-2.3,0-4.5,0-6.8c0-3.8,0-7.6,0-11.4c0-4.4,0-8.8,0-13.2c0-3.8,0-7.6,0-11.4c0-2.3,0-4.5,0-6.8c0-2.1,0-4.2,0-6.3
	c0-1.1,0-2.3,0-3.4c0-0.7,0-1.4,0-2.1c0-0.6,0-1.2,0-1.8C193.4,101,192.1,99.2,190.1,97.4z"/>
<path class="st31" d="M412.7,114.1c0.4,0,0.8,0,1.2,0c0,64,0,127.9,0,193.8c-3.9-1.3-3.9-1.3-5.7-2.1c-0.4-0.2-0.8-0.4-1.1-0.5
	c-0.4-0.2-0.8-0.4-1.2-0.6c-0.6-0.3-0.6-0.3-1.2-0.6c-1-0.5-1.9-0.9-2.9-1.4c0-0.2,0-0.4,0-0.6c2.7-0.3,5.1,0.5,7.5,1.7
	c0.2,0.4,0.4,0.8,0.6,1.2c1.1,0.4,2.3,0.8,3.5,1.2C413.1,242.8,412.9,179.4,412.7,114.1z"/>
<path class="st32" d="M168.9,96.2c0.5,0,0.9,0,1.4,0c0.7,0,0.7,0,1.5,0c0.5,0,1,0,1.5,0c1.6,0,3.2,0,4.9,0c1.1,0,2.2,0,3.3,0
	c2.7,0,5.4,0,8.1,0c0.3,0.6,0.3,0.6,0.6,1.2c-0.7,0-1.4,0-2.1,0c-2.5,0-5.1-0.1-7.6-0.1c-1.1,0-2.2,0-3.3,0c-1.6,0-3.1,0-4.7-0.1
	c-0.5,0-1,0-1.5,0c-3.1,0-4.9,0.4-7.4,2.6c-1.5,2.1-1.9,3.6-1.9,6.2c0,0.7,0,1.3,0,2c0,0.7,0,1.5,0,2.2c0,0.8,0,1.6,0,2.3
	c0,1.7,0,3.4,0,5c0,2.7,0,5.3,0,8c0,5.7,0,11.3,0,17c0,6.1,0,12.2,0,18.3c0,2.6,0,5.3,0,7.9c0,1.6,0,3.3,0,4.9c0,1.1,0,2.2,0,3.4
	c0,6.1,0,6.1-2,8.9c-0.2,0-0.4,0-0.6,0c0-1,0-1.9,0-2.9c0.2-0.2,0.4-0.4,0.6-0.6c0.1-1,0.1-2.1,0.1-3.1c0-0.7,0-1.4,0-2.1
	c0-0.8,0-1.5,0-2.3c0-0.8,0-1.6,0-2.4c0-2.2,0-4.4,0-6.5c0-2.3,0-4.5,0-6.8c0-4.3,0.1-8.6,0.1-12.9c0-4.9,0.1-9.8,0.1-14.7
	c0.1-10.1,0.1-20.2,0.2-30.2c0.4,0,0.8,0,1.2,0c0-0.6,0-1.1,0-1.7c0.4-0.2,0.8-0.4,1.2-0.6c-0.2-0.4-0.4-0.8-0.6-1.2
	c0.8,0,1.5,0,2.3,0c0-0.4,0-0.8,0-1.2C165.8,96.4,167.2,96.2,168.9,96.2z"/>
<path class="st33" d="M220,124.4c0.2,0,0.4,0,0.6,0c0.2,29.4,0.4,58.8,0.6,89.2c0.4,0.2,0.8,0.4,1.2,0.6c-0.4,0.2-0.8,0.4-1.2,0.6
	c-0.6-0.4-1.1-0.8-1.7-1.2c-0.2-1.5-0.2-2.9-0.2-4.5c0-0.5,0-0.9,0-1.4c0-1.6,0-3.1,0-4.7c0-1.1,0-2.2,0-3.3c0-3,0-5.9,0-8.9
	c0-2.4,0-4.9,0-7.3C219.4,163.8,219.6,144.1,220,124.4z"/>
<path class="st34" d="M69.3,99.1c0.6,0.2,1.1,0.4,1.7,0.6c-0.3,0.4-0.6,0.8-0.8,1.2c-1,1.9-1.1,3-1.1,5.1c0,0.7,0,1.4,0,2.1
	c0,0.8,0,1.5,0,2.3c0,0.8,0,1.6,0,2.4c0,2.2,0,4.4,0,6.6c0,2.3,0,4.6,0,6.9c0,3.9,0,7.8,0,11.6c0,4.5,0,8.9,0,13.4
	c0,3.8,0,7.7,0,11.5c0,2.3,0,4.6,0,6.9c0,2.2,0,4.3,0,6.5c0,1.2,0,2.3,0,3.5c0,4.2,0.5,8,1.6,12.1c0.3,1.6,0.3,2.4-0.3,3.9
	c-3.1-4.6-2.5-10.7-2.4-16c0-0.8,0-1.7,0-2.5c0-2.3,0-4.6,0-6.8c0-2.4,0-4.8,0-7.2c0-4,0-8,0-12c0-4.6,0-9.3,0-13.9c0-4,0-8,0-12
	c0-2.4,0-4.8,0-7.1c0-2.2,0-4.5,0-6.7c0-0.8,0-1.6,0-2.5c0-1.1,0-2.2,0-3.4c0-0.6,0-1.3,0-1.9C68.2,102,68.6,100.7,69.3,99.1z"/>
<path class="st35" d="M218.9,12.3c0,12.1,0,24.3,0,36.8c-1.5-1.5-1.3-2.1-1.3-4.2c0-0.6,0-1.3,0-2c0-0.7,0-1.4,0-2.1
	c0-0.7,0-1.4,0-2.2c0-1.9-0.1-3.8-0.1-5.7c0-1.9-0.1-3.9-0.1-5.8c-0.1-3.8-0.1-7.6-0.1-11.4c-2.5,0.7-5,1.4-7.4,2.3
	c-0.5,0.2-1.1,0.4-1.6,0.6c-1.4,0.5-1.4,0.5-1.9,1.7c-0.9,0-1.9,0-2.9,0c2.3-2,4.8-3.3,7.5-4.7c0.4-0.2,0.8-0.4,1.2-0.6
	c0.8-0.4,1.6-0.8,2.3-1.1c0.8-0.4,1.6-0.8,2.4-1.2C217.7,12.3,217.7,12.3,218.9,12.3z"/>
<path class="st36" d="M72.2,98c0.4,0.2,0.8,0.4,1.2,0.6c-0.8,1.2-0.8,1.2-1.7,2.3c-0.4,0-0.8,0-1.2,0c0.2,0.6,0.4,1.1,0.6,1.7
	c-0.4,0.4-0.8,0.8-1.2,1.2c-0.2,1.5-0.2,1.5-0.1,3.3c0,0.7,0,1.4,0,2.2c0,0.8,0,1.6,0,2.4c0,0.8,0,1.7,0,2.5c0,2.3,0,4.5,0,6.8
	c0,2.4,0,4.7,0,7.1c0,4.5,0,9,0,13.5c0,5.1,0,10.2,0,15.3c0,10.5,0,21,0.1,31.5c-1.2-2-1.3-3.5-1.3-5.7c0-0.7,0-1.4,0-2.1
	c0-0.8,0-1.5,0-2.3c0-0.8,0-1.6,0-2.4c0-2.2,0-4.4,0-6.6c0-1.4,0-2.8,0-4.2c0-4.8,0-9.7,0-14.5c0-4.5,0-9,0-13.5c0-3.9,0-7.7,0-11.6
	c0-2.3,0-4.6,0-6.9c0-2.2,0-4.3,0-6.5c0-0.8,0-1.6,0-2.4c-0.1-7.4-0.1-7.4,2.6-10.3C71.4,98.7,71.8,98.4,72.2,98z"/>
<path class="st37" d="M98.1,98.6c3.4,3.2,3.4,3.2,3.5,6c0,0.9,0,0.9,0,1.8c0,0.7,0,1.3,0,2c0,0.7,0,1.5,0,2.2c0,0.8,0,1.6,0,2.3
	c0,2.1,0,4.2,0,6.3c0,2.2,0,4.4,0,6.6c0,4.2,0,8.3,0,12.5c0,4.8,0,9.5,0,14.3c0,9.8,0,19.6,0,29.3c-0.2,0-0.4,0-0.6,0
	c0-0.5,0-0.5,0-1c-0.1-8.5-0.1-16.9-0.2-25.4c0-4.1-0.1-8.2-0.1-12.3c0-3.6-0.1-7.1-0.1-10.7c0-1.9,0-3.8,0-5.7
	c0-6.8-0.1-13.5-0.4-20.3c0-0.4,0-0.9,0-1.3c-0.1-2.3-0.1-2.3-1.2-4.3c-0.3-0.2-0.6-0.5-0.8-0.7C98.1,99.7,98.1,99.1,98.1,98.6z"/>
<path class="st38" d="M160.8,102.6c0.2,0,0.4,0,0.6,0c0,10.4,0.1,20.7,0.1,31.1c0,4.8,0,9.6,0,14.4c0,4.2,0,8.4,0,12.6
	c0,2.2,0,4.4,0,6.7c0,2.1,0,4.2,0,6.3c0,1.1,0,2.3,0,3.4c0,1,0,1,0,2.1c0,0.6,0,1.2,0,1.8c-0.3,2-1,3.4-1.9,5.1c-0.2,0-0.4,0-0.6,0
	c-0.1-1.6-0.1-2.7,0.6-4.2c0.6-1.7,0.7-3,0.7-4.8c0-0.7,0-1.3,0-2c0-0.7,0-1.4,0-2.2c0-1.1,0-1.1,0-2.3c0-2.1,0-4.1,0-6.2
	c0-2.2,0-4.3,0-6.5c0-4.1,0-8.2,0.1-12.3c0-4.7,0.1-9.3,0.1-14C160.7,121.8,160.7,112.2,160.8,102.6z"/>
<path class="st39" d="M100.4,112.9c0.2,0,0.4,0,0.6,0c0,22.8,0,45.6,0,69c0.4,0,0.8,0,1.2,0c0.5,0.8,1,1.7,1.5,2.5
	c0.3,0.5,0.5,0.9,0.8,1.4c0.2,0.4,0.4,0.8,0.6,1.2c-0.3,0.6-0.3,0.6-0.6,1.2c-2.3-1.5-3.2-3.1-4-5.8c-0.3-2.3-0.3-4.6-0.3-6.9
	c0-0.7,0-1.4,0-2.1c0-2.2,0-4.5,0-6.7c0-1.6,0-3.1,0-4.7c0-3.7,0-7.3,0-11c0-4.2,0-8.3,0-12.5C100.3,130.1,100.3,121.5,100.4,112.9z
	"/>
<path class="st40" d="M344.8,199.2c0.9,0,1.9,0,2.9,0c-2.1,1.8-3.9,2.9-6.5,3.8c-0.9,0.3-0.9,0.3-1.8,0.7c-4.3,1.4-8.3,2-12.8,2
	c-0.7,0-0.7,0-1.5,0c-4.6-0.1-8.7-1-13.1-2.5c0-0.4,0-0.8,0-1.2c4.3,0.4,4.3,0.4,5.9,1.1c7,2.6,14.9,1.1,21.7-1.1
	c0.5-0.2,1-0.3,1.6-0.5C343.5,200.9,343.5,200.9,344.8,199.2z"/>
<path class="st41" d="M199.9,223.4c-0.3,0.2-0.6,0.3-1,0.5c-7.4,3.5-14.8,7.1-22.1,10.8c-0.5,0.3-1,0.5-1.6,0.8
	c-0.4,0.2-0.9,0.5-1.3,0.7c-1,0.5-1,0.5-2.2,0.5c0-0.4,0-0.8,0-1.2c0.5-0.2,0.9-0.3,1.4-0.5c1.6-0.5,1.6-0.5,2-1.8
	c1-0.4,1-0.4,2.3-0.8c2.4-0.8,4.3-1.8,6.4-3.3c1-0.6,1-0.6,3.4-0.6c0-0.4,0-0.8,0-1.2c1.7-0.4,3.4-0.8,5.2-1.2c0-0.4,0-0.8,0-1.2
	c0.9-0.4,1.8-0.8,2.8-1.2c0.5-0.2,1-0.4,1.6-0.7C198.2,222.8,198.2,222.8,199.9,223.4z"/>
<path class="st42" d="M373,193.5c1.7,1.4,1.7,1.4,2.9,2.9c0.8,0.6,0.8,0.6,1.6,1.1c1.6,1.5,1.7,2.5,1.9,4.6
	c-0.3-0.4-0.6-0.8-0.9-1.2c-3.5-4.1-7.3-7.1-12.8-7.6c-4.5-0.2-8.6,0.2-12.8,1.9C357.3,189.7,367.2,191,373,193.5z"/>
<path class="st43" d="M98.1,229.7c4.6,1.5,4.6,1.5,6.6,2.3c7.8,3.1,16.1,4,24.4,4.4c0.6,0,1.1,0,1.7,0.1c1.4,0.1,2.7,0.1,4.1,0.2
	c0,0.2,0,0.4,0,0.6c-3.7,0-7.4,0-11.1,0c-1,0-1.9,0-2.9,0c-8.2,0-15.5-3.1-22.9-6.3C98.1,230.5,98.1,230.1,98.1,229.7z"/>
<path class="st44" d="M131.4,58.3c0,0.4,0,0.8,0,1.2c-0.6,0-1.1,0-1.7,0c-0.1,0.4-0.2,0.7-0.3,1.1c-1.4,2-3.2,1.9-5.5,2.4
	c-0.2,0.8-0.4,1.5-0.6,2.3c-1,0.1-1,0.1-2.1,0.1c-2.1,0.2-2.5,0.5-4.2,1.9c-2.2,1.9-3.5,1.9-6.3,2c2.2-2,4.5-3.2,7.2-4.5
	c3.7-1.8,7.3-3.7,10.9-5.7C130.3,58.3,130.3,58.3,131.4,58.3z"/>
<path class="st45" d="M181.5,214.7c0,2.1-0.5,2.9-1.7,4.6c-1.5,1.4-2.9,2.6-4.7,3.5c-1.1,0.5-1.1,0.5-1.9,1.7c-2.2,3-5.5,3.4-9,4.1
	c1.7-1.3,3.4-2.4,5.2-3.5C173.9,222.2,177.7,218.5,181.5,214.7z"/>
<path class="st46" d="M293.1,50.2c7.2,3.5,14.2,7.2,21.3,10.9c-0.4,0.4-0.8,0.8-1.2,1.2c-1.2-0.2-1.2-0.2-2.3-0.6c0-0.4,0-0.8,0-1.2
	c-0.3-0.1-0.7-0.1-1-0.2c-1.4-0.4-2.4-0.9-3.7-1.6c-0.4-0.3-0.9-0.5-1.4-0.8c-0.5-0.3-0.9-0.5-1.4-0.8c-3.9-2.3-3.9-2.3-8.1-4.1
	c-1.3-0.9-1.3-0.9-2.3-1.7C293.1,51,293.1,50.6,293.1,50.2z"/>
<path class="st47" d="M251.1,152c0.4,0,0.8,0,1.2,0c-0.1,0.7-0.2,1.3-0.3,2c-0.5,4.1-0.5,8.3-0.6,12.4c0,0.8,0,1.7-0.1,2.5
	c-0.1,2-0.1,4.1-0.2,6.1c-0.4,0-0.8,0-1.2,0c0-2.5,0-5.1-0.1-7.6c0-0.9,0-1.7,0-2.6c0-1.2,0-2.5,0-3.7c0-0.7,0-1.5,0-2.3
	C249.9,156.4,250.4,154.4,251.1,152z"/>
<path class="st48" d="M71.6,89.3c0.4,0.2,0.8,0.4,1.2,0.6c-3.8,4-3.8,4-7,4.1c-0.8,0-0.8,0-1.6-0.1c0,0.4-0.1,0.7-0.1,1.1
	c-0.4,1.2-0.4,1.2-1.5,1.8c-0.4,0.1-0.9,0.3-1.4,0.4c-0.5,0.1-0.9,0.3-1.4,0.4c-1.4,0.4-2.8,0.7-4.2,0.9c2.4-2.7,5.8-4,9-5.6
	c0.7-0.4,1.3-0.7,2-1.1c1-0.5,1-0.5,1.9-1c0.6-0.3,1.2-0.6,1.8-0.9C70.7,89.7,71.1,89.5,71.6,89.3z"/>
<path class="st49" d="M70.5,191.2c2.2,3.3,3.5,7.1,4.8,10.9c0.6,1.6,1.4,3.1,2.1,4.6c0,0.4,0,0.8,0,1.2c0.4,0,0.8,0,1.2,0
	c0.2,1.3,0.4,2.7,0.6,4c-1.9-2.1-3.1-4.4-4.3-6.9c-0.2-0.4-0.3-0.8-0.5-1.1C70.5,195.4,70.5,195.4,70.5,191.2z"/>
<path class="st50" d="M75.7,96.2c0.5,0,0.9,0,1.4,0c0.5,0,1,0,1.5,0c0.5,0,1,0,1.5,0c1.1,0,2.1,0,3.2,0c1.6,0,3.2,0,4.8,0
	c1,0,2.1,0,3.1,0c0.7,0,0.7,0,1.5,0c4.6,0,4.6,0,6.7,1.3c0.4,1.2,0.4,1.2,0.6,2.3c-0.7-0.4-1.3-0.7-2-1.1c-2.6-1.3-4.6-1.5-7.5-1.5
	c-0.4,0-0.9,0-1.3,0c-0.9,0-1.9,0-2.8,0c-1.4,0-2.8,0-4.3,0c-0.9,0-1.8,0-2.7,0c-0.4,0-0.8,0-1.3,0c-2.7,0-4.6,0.6-6.9,2
	c0-0.8,0-1.5,0-2.3C72.6,96.4,74,96.2,75.7,96.2z"/>
<path class="st51" d="M218.9,213c0,0.4,0,0.8,0,1.2c-2.5,1.2-5,2.5-7.6,3.7c-0.9,0.4-1.7,0.8-2.6,1.3c-1.2,0.6-2.5,1.2-3.7,1.8
	c-0.4,0.2-0.8,0.4-1.2,0.6c-0.9,0.5-1.9,0.9-2.8,1.3c-0.4-0.2-0.8-0.4-1.2-0.6c0.6-0.2,1.1-0.4,1.7-0.6c0-0.4,0-0.8,0-1.2
	c0.8,0,1.5,0,2.3,0c0-0.4,0-0.8,0-1.2c0.8,0,1.5,0,2.3,0c0-0.4,0-0.8,0-1.2c0.8,0,1.5,0,2.3,0c0-0.4,0-0.8,0-1.2c0.8,0,1.5,0,2.3,0
	c0-0.4,0-0.8,0-1.2c0.4-0.1,0.9-0.2,1.3-0.3c1.3-0.3,2.6-0.6,3.9-0.9c0-0.4,0-0.8,0-1.2C217.7,213,217.7,213,218.9,213z"/>
<path class="st52" d="M193.6,184.3c0.2,0,0.4,0,0.6,0c0.4,6.4-1.1,12.6-4,18.2c-0.7,1.4-0.7,1.4-1.3,3.4c-0.2,0.5-0.3,0.9-0.5,1.4
	c-0.9,0.3-0.9,0.3-1.7,0.6c0.1-0.4,0.3-0.7,0.5-1.1c0.2-0.6,0.5-1.2,0.7-1.8c0.1-0.4,0.3-0.7,0.4-1.1
	C190.8,197.4,192.6,191.2,193.6,184.3z"/>
<path class="st53" d="M49.2,297c-0.4,0.2-0.8,0.4-1.1,0.5c-1.7,0.8-3.5,1.7-5.2,2.5c-0.6,0.3-1.2,0.6-1.8,0.9
	c-2.6,1.2-5.2,2.5-7.8,3.8c-1.9,0.9-1.9,0.9-3.1,0.9c0-0.4,0-0.8,0-1.2c0.7-0.3,1.3-0.5,2-0.8c2.1-0.7,2.1-0.7,2.6-2.1
	c1.1-0.5,1.1-0.5,2.6-0.9c0.5-0.1,0.9-0.3,1.4-0.5c1.2-0.3,1.2-0.3,2.4-0.3c0-0.4,0-0.8,0-1.2c0.9,0,1.9,0,2.9,0c0-0.4,0-0.8,0-1.2
	C46,296.6,47.1,296.3,49.2,297z"/>
<path class="st54" d="M333.9,89.3c0.2,0.2,0.4,0.4,0.6,0.6c2.1,0.2,4.1,0.3,6.2,0.4c1.9,0.2,1.9,0.2,3,1.4
	c-4.9,0.1-9.8-0.2-14.7-0.6c-0.8-0.1-1.6-0.1-2.4-0.2c-2-0.1-3.9-0.3-5.9-0.4c0-0.2,0-0.4,0-0.6C330.3,89.1,330.3,89.1,333.9,89.3z"
	/>
<path class="st55" d="M110.2,266.5c-2.7,2.2-5.8,3.5-9,5c-0.6,0.3-1.2,0.6-1.9,0.9c-0.6,0.3-1.2,0.6-1.8,0.8
	c-0.8,0.4-0.8,0.4-1.6,0.8c-0.4,0.2-0.9,0.3-1.3,0.5c-0.4-0.2-0.8-0.4-1.2-0.6c0.8-0.2,1.5-0.4,2.3-0.6c0-0.4,0-0.8,0-1.2
	c1.7-0.7,2.8-1.2,4.6-1.2c0-0.4,0-0.8,0-1.2c0.3-0.1,0.7-0.2,1-0.3c0.4-0.1,0.8-0.3,1.3-0.5c0.4-0.1,0.8-0.3,1.3-0.4
	c1.2-0.4,1.2-0.4,1.6-1.6C107.2,266.5,108.4,266.5,110.2,266.5z"/>
<path class="st56" d="M42.3,105.5c0,1.2,0,1.2-0.7,2c-1.4,1.1-2.6,1.4-4.3,1.8c-0.6,0.1-1.1,0.3-1.7,0.4c-0.4,0.1-0.9,0.2-1.3,0.3
	c-0.2,0.8-0.4,1.5-0.6,2.3c-1.5,0-3,0-4.6,0c2.3-2,4.8-3.4,7.6-4.7c0.4-0.2,0.8-0.4,1.3-0.6C41,105.5,41,105.5,42.3,105.5z"/>
<path class="st57" d="M252.2,184.3c1.2,1.2,1.5,1.8,2,3.4c0.1,0.4,0.3,0.9,0.4,1.3c0.1,0.5,0.3,0.9,0.5,1.4c0.1,0.5,0.3,0.9,0.5,1.4
	c0.9,2.7,1.7,5.3,2.4,8c-0.4,0-0.8,0-1.2,0c-0.2-0.7-0.2-0.7-0.4-1.4c-0.2-0.6-0.4-1.2-0.6-1.8c-0.3-0.9-0.3-0.9-0.6-1.8
	c-0.6-1.5-0.6-1.5-2-1.9c-0.4,0-0.7-0.1-1.1-0.1c0.1-0.6,0.2-1.1,0.3-1.7C252.9,188.8,252.6,186.6,252.2,184.3z"/>
<path class="st58" d="M380.5,112.9c1.1,0.3,1.1,0.3,2.3,1.2c0.7,3.1,0.6,6.2,0.7,9.3c0,0.4,0,0.8,0,1.2c0,2.3-0.3,4.1-1.3,6.2
	c-0.4,0-0.8,0-1.2,0c0.1-0.4,0.2-0.7,0.3-1.1c1.2-5.4,1.1-9.3-0.8-14.4c-0.2-0.6-0.4-1.1-0.6-1.7
	C380.1,113.3,380.3,113.1,380.5,112.9z"/>
<path class="st59" d="M351.7,276.9c0.6,0,1.1,0,1.7,0c0,0.4,0,0.8,0,1.2c0.8,0,1.5,0,2.3,0c0,0.4,0,0.8,0,1.2c0.3,0.1,0.7,0.1,1,0.2
	c2.7,0.5,4.8,1.1,7,2.7c-1,0.6-1,0.6-2.3,1.2c-1.2-0.3-1.2-0.3-2.5-1c-0.5-0.2-0.9-0.5-1.4-0.7c-0.5-0.3-0.9-0.5-1.4-0.8
	c-0.5-0.3-1-0.5-1.5-0.8c-1.2-0.6-2.4-1.3-3.6-1.9C351.4,277.6,351.5,277.3,351.7,276.9z"/>
<path class="st60" d="M144.7,51.4c0,0.4,0,0.8,0,1.2c-0.6,0-1.1,0-1.7,0c0,0.4,0,0.8,0,1.2c-0.6,0-1.1,0-1.7,0
	c-0.2,0.4-0.3,0.7-0.5,1.1c-0.7,1.2-0.7,1.2-2.4,2.4c-1.5,0-3.1,0-4.6,0c2-1.7,4-3,6.4-4.2c0.6-0.3,1.2-0.6,1.8-0.9
	C143.5,51.4,143.5,51.4,144.7,51.4z"/>
<path class="st61" d="M71,195.8c1.3,2,2.2,4,3.2,6.2c0.2,0.4,0.4,0.8,0.5,1.2c1,2.3,1.9,4.6,2.6,6.9c-2.6-1.8-3.5-3.3-4.5-6.2
	c-0.2-0.7-0.5-1.4-0.7-2.1C71.6,199.8,71.3,197.9,71,195.8z"/>
<path class="st62" d="M186.1,29.5c0,0.6,0,1.1,0,1.7c-0.6,0.2-1.2,0.3-1.9,0.5c-1.9,0.6-2.9,1.2-4.5,2.4c-0.4,0-0.8,0-1.2,0
	c0,0.4,0,0.8,0,1.2c-2.2,0.9-3.5,1.3-5.8,0.6c2-1.1,4-2.1,6-3.2c0.6-0.3,1.1-0.6,1.7-0.9c0.8-0.4,0.8-0.4,1.6-0.9
	c0.5-0.3,1-0.5,1.5-0.8C184.9,29.5,184.9,29.5,186.1,29.5z"/>
<path class="st63" d="M216.6,13.4c0,0.4,0,0.8,0,1.2c-0.4,0-0.8,0-1.2,0c0,0.4,0,0.8,0,1.2c-2.2,1.2-4.4,2.3-6.9,2.9
	c-0.9,0.2-0.9,0.2-1.8,0.5c-0.2,0.4-0.4,0.8-0.6,1.2c-0.9,0-1.9,0-2.9,0c2.3-2,4.8-3.4,7.6-4.7c0.4-0.2,0.8-0.4,1.3-0.6
	C215.3,13.4,215.3,13.4,216.6,13.4z"/>
<path class="st64" d="M320.7,127.9c13.7-0.4,13.7-0.4,19.6,1.7c0,0.2,0,0.4,0,0.6c-1.2-0.1-2.4-0.2-3.6-0.3c-0.7,0-1.3-0.1-2-0.1
	c-1.9-0.2-1.9-0.2-3-0.5c-1.2-0.3-2.3-0.4-3.5-0.5c-0.4,0-0.9,0-1.3-0.1c-0.7,0-0.7,0-1.4-0.1c-0.7,0-0.7,0-1.4-0.1
	c-1.1-0.1-2.2-0.1-3.4-0.2C320.7,128.3,320.7,128.1,320.7,127.9z"/>
<path class="st65" d="M254,29.5c4.2,2.1,8.4,4.2,12.7,6.3c-0.4,0.4-0.8,0.8-1.2,1.2c-1.2-0.1-1.2-0.1-2.3-0.6
	c-0.2-0.6-0.4-1.1-0.6-1.7c-1.3-0.4-2.7-0.8-4-1.2c-1-0.4-1.9-0.7-2.9-1.2c0-0.4,0-0.8,0-1.2c-0.6-0.2-1.1-0.4-1.7-0.6
	C254,30.3,254,29.9,254,29.5z"/>
<path class="st66" d="M312.1,202.1c4.3,0.4,4.3,0.4,6,1.2c1.7,0.6,3.1,0.8,4.8,0.9c0.8,0.1,0.8,0.1,1.7,0.1c0.4,0,0.8,0.1,1.3,0.1
	c0,0.2,0,0.4,0,0.6c-5,1.1-9-0.3-13.8-1.7C312.1,202.9,312.1,202.5,312.1,202.1z"/>
<path class="st67" d="M46.9,100.9c0.9,0,1.9,0,2.9,0c-2.2,1.9-4.8,3.1-7.3,4.4c-0.5,0.2-0.9,0.5-1.4,0.7c-1.1,0.6-2.2,1.2-3.4,1.8
	c-0.2-0.4-0.4-0.8-0.6-1.2c0.4,0,0.8,0,1.2,0c0-0.4,0-0.8,0-1.2c0.8,0,1.5,0,2.3,0c0-0.4,0-0.8,0-1.2c0.7-0.4,1.5-0.8,2.2-1.2
	c0.4-0.2,0.8-0.4,1.2-0.6c1.2-0.5,1.2-0.5,2.9-0.5C46.9,101.6,46.9,101.2,46.9,100.9z"/>
<path class="st68" d="M183.8,229.1c0.4,0.2,0.8,0.4,1.2,0.6c-0.6,0.2-1.1,0.4-1.7,0.6c0,0.4,0,0.8,0,1.2c-1.7,0.9-3.4,1.7-5.1,2.6
	c-0.5,0.2-1,0.5-1.5,0.7c-0.5,0.2-0.9,0.5-1.4,0.7c-0.4,0.2-0.9,0.4-1.3,0.7c-1.1,0.5-1.1,0.5-2.2,0.5c0-0.4,0-0.8,0-1.2
	c0.5-0.2,0.9-0.3,1.4-0.5c1.6-0.5,1.6-0.5,2-1.8c1.1-0.4,1.1-0.4,2.4-0.8C180,231.6,181.8,230.6,183.8,229.1z"/>
<path class="st69" d="M80.8,281.5c-1.4,0.7-2.9,1.5-4.3,2.2c-0.4,0.2-0.8,0.4-1.2,0.6c-2.5,1.3-4.9,2.2-7.7,2.9c0-0.4,0-0.8,0-1.2
	c0.8,0,1.5,0,2.3,0c0-0.4,0-0.8,0-1.2c0.4-0.2,0.8-0.3,1.2-0.5c0.5-0.2,1.1-0.4,1.6-0.6c0.8-0.3,0.8-0.3,1.6-0.6
	c1.4-0.5,1.4-0.5,1.9-1.8C78,280.8,79.1,281,80.8,281.5z"/>
<path class="st70" d="M103.3,73.2c0,0.4,0,0.8,0,1.2c-1.3,0.4-2.7,0.8-4,1.2c0,0.4,0,0.8,0,1.2c-0.6,0-1.1,0-1.7,0
	c-0.2,0.6-0.4,1.1-0.6,1.7c-1.6,0.8-2.9,0.6-4.6,0.6c2-1.7,4-3,6.4-4.2c0.6-0.3,1.2-0.6,1.8-0.9C102.1,73.2,102.1,73.2,103.3,73.2z"
	/>
<path class="st71" d="M170.6,37.6c0,0.4,0,0.8,0,1.2c-0.6,0-1.1,0-1.7,0c0,0.4,0,0.8,0,1.2c-1.3,1.8-2.1,2.3-4.3,2.7
	c-0.7,0.1-1.4,0.1-2,0.2c-1,0.2-1.9,0.4-2.9,0.6c1.9-1.5,4-2.7,6.1-3.8c0.7-0.4,1.3-0.7,2-1.1C169.4,37.6,169.4,37.6,170.6,37.6z"/>
<path class="st72" d="M371.3,91.6c1.8,0.8,3.6,1.7,5.4,2.5c0.5,0.2,1,0.5,1.5,0.7c0.7,0.3,0.7,0.3,1.5,0.7c0.4,0.2,0.9,0.4,1.4,0.6
	c1.2,0.6,1.2,0.6,2.9,1.8c-0.2,0.4-0.4,0.8-0.6,1.2c-8.5-4.2-8.5-4.2-12.1-6.3C371.3,92.4,371.3,92,371.3,91.6z"/>
<path class="st73" d="M213.1,15.1c-1.8,1-3.6,1.9-5.4,2.9c-0.5,0.3-1,0.5-1.6,0.8c-0.5,0.3-1,0.5-1.5,0.8c-0.5,0.2-0.9,0.5-1.4,0.7
	c-1.1,0.5-1.1,0.5-2.3,0.5c0-0.6,0-1.1,0-1.7c1-0.4,2.1-0.8,3.1-1.2c0.6-0.2,1.1-0.4,1.7-0.6c1.5-0.5,1.5-0.5,2.6-0.5
	c0-0.4,0-0.8,0-1.2C210.3,14.6,211.1,14.5,213.1,15.1z"/>
<path class="st74" d="M131.4,256.2c-2,1.6-4.1,2.7-6.4,3.8c-0.5,0.3-0.5,0.3-1.1,0.6c-2.7,1.3-2.7,1.3-4,1.3c0-0.4,0-0.8,0-1.2
	c3.7-2.3,3.7-2.3,6.3-2.3c0-0.4,0-0.8,0-1.2C128.1,256.2,129.4,256,131.4,256.2z"/>
<path class="st75" d="M195.9,23.8c0.4,0.2,0.8,0.4,1.2,0.6c-0.9,0.4-1.9,0.8-2.9,1.2c0,0.4,0,0.8,0,1.2c-0.9,0.5-1.8,1-2.7,1.5
	c-0.5,0.3-1,0.5-1.5,0.8c-1.7,0.6-2.1,0.5-3.8,0c1.6-0.9,3.2-1.8,4.8-2.6c0.5-0.3,0.9-0.5,1.4-0.8c0.4-0.2,0.9-0.5,1.3-0.7
	c0.6-0.3,0.6-0.3,1.2-0.7C195.2,24,195.5,23.9,195.9,23.8z"/>
<path class="st76" d="M24.5,298.1c0.2,0,0.4,0,0.6,0c0,3.2,0,6.5,0,9.8c0.8-0.4,1.7-0.8,2.5-1.2c2.5-1.2,2.5-1.2,3.8-1.2
	c0,0.4,0,0.8,0,1.2c-2.7,1.5-3.7,1.7-6.9,1.7C24.5,305.1,24.5,301.7,24.5,298.1z"/>
<path class="st77" d="M367.8,230.3c0.2,0.6,0.4,1.1,0.6,1.7c-1,0.6-2,1.2-3,1.7c-0.8,0.5-0.8,0.5-1.7,1c-1.7,0.8-2.7,0.9-4.5,0.8
	c1.8-1.4,3.6-2.5,5.6-3.6c0.6-0.3,1.1-0.6,1.7-0.9C367,230.7,367.4,230.5,367.8,230.3z"/>
<path class="st78" d="M92.9,76.7c0.8,0.2,1.5,0.4,2.3,0.6c-1.7,1-3.4,1.9-5.1,2.9c-0.5,0.3-1,0.5-1.5,0.8c-0.7,0.4-0.7,0.4-1.4,0.8
	c-0.4,0.2-0.9,0.5-1.3,0.7C84.9,83,84.9,83,83.7,83c0-0.6,0-1.1,0-1.7c0.7-0.3,1.4-0.6,2.2-0.8c0.4-0.2,0.8-0.3,1.2-0.5
	c1.2-0.4,2.3-0.7,3.5-1c0-0.4,0-0.8,0-1.2c0.8,0,1.5,0,2.3,0C92.9,77.5,92.9,77.1,92.9,76.7z"/>
<path class="st79" d="M251.7,228.5c0.8,0.2,1.5,0.4,2.3,0.6c0.7,0.2,1.3,0.3,2,0.5c1.9,0.6,3.3,1.2,4.9,2.4c0.2,0.6,0.4,1.1,0.6,1.7
	c-3.5-1-6.6-2.8-9.8-4.6C251.7,228.9,251.7,228.7,251.7,228.5z"/>
<path class="st80" d="M157.9,188.3c0.2,0.4,0.4,0.8,0.6,1.2c-1.1,2.7-2.4,4.5-4.6,6.3c-1.6,0.5-1.6,0.5-2.9,0.6
	c0.4-0.4,0.8-0.7,1.2-1.1C154.3,193.1,156.1,190.7,157.9,188.3z"/>
<path class="st81" d="M131.4,58.3c0,0.4,0,0.8,0,1.2c-0.6,0-1.1,0-1.7,0c-0.1,0.4-0.2,0.7-0.4,1.1c-1.1,1.7-2.2,1.9-4.2,2.4
	c-1.3-0.3-1.3-0.3-2.3-0.6c1.2-0.7,2.4-1.3,3.7-2c0.5-0.3,0.5-0.3,1.1-0.6C130.2,58.3,130.2,58.3,131.4,58.3z"/>
<path class="st82" d="M119.9,261.9c-1.7,1.4-3.5,2.4-5.5,3.3c-0.8,0.4-0.8,0.4-1.7,0.8c-0.5,0.2-0.9,0.3-1.4,0.5
	c-0.4-0.2-0.8-0.4-1.2-0.6c0.6-0.2,1.1-0.4,1.7-0.6c0-0.4,0-0.8,0-1.2c0.8,0,1.5,0,2.3,0c0-0.4,0-0.8,0-1.2
	C116.2,262.1,117.7,261.8,119.9,261.9z"/>
<path class="st59" d="M302.9,135.4c0.2,0.6,0.4,1.1,0.6,1.7c-0.8,0.9-0.8,0.9-1.7,1.7c-0.4,0-0.8,0-1.2,0c-0.4,0.8-0.8,1.5-1.2,2.3
	c-0.8-0.2-1.5-0.4-2.3-0.6c0.6-0.6,1.3-1.3,1.9-1.9c0.4-0.4,0.7-0.7,1.1-1.1C301.1,136.5,301.1,136.5,302.9,135.4z"/>
<path class="st83" d="M366.1,284.3c2.5,0.4,4.6,1.3,6.9,2.3c0,0.4,0,0.8,0,1.2c0.9,0.2,1.9,0.4,2.9,0.6c-0.4,0.4-0.8,0.8-1.2,1.2
	c-2.8-1.3-5.7-2.7-8.6-4C366.1,285.1,366.1,284.7,366.1,284.3z"/>
<path class="st84" d="M186.7,205.5c0.2,0.4,0.4,0.8,0.6,1.2c-0.7,1.4-0.7,1.4-1.8,3.1c-0.4,0.6-0.7,1.1-1.1,1.7
	c-1,1.5-2.1,2.7-3.4,3.9c0.2-0.9,0.4-1.9,0.6-2.9c0.6-0.2,1.1-0.4,1.7-0.6c0-0.6,0-1.1,0-1.7c0.4,0,0.8,0,1.2,0c0-0.6,0-1.1,0-1.7
	c0.4,0,0.8,0,1.2,0C185.9,207.5,186.3,206.5,186.7,205.5z"/>
<path class="st85" d="M290.8,96.2c1.7,0.6,1.7,0.6,3.5,1.7c-3.4,2-3.4,2-6.9,4c-0.2-0.4-0.4-0.8-0.6-1.2c0.5-0.1,0.9-0.2,1.4-0.4
	c1.7-0.7,1.7-0.7,2.3-2.6C290.5,97.4,290.6,96.8,290.8,96.2z"/>
<path class="st86" d="M262.6,209c2.2,0.8,2.9,2,4,4c-0.6,0.3-0.6,0.3-1.2,0.6c0-0.4,0-0.8,0-1.2c-0.9,0.2-1.9,0.4-2.9,0.6
	C262.1,211.3,262,210.8,262.6,209z"/>
<path class="st87" d="M107.9,191.2c2.7,1.1,2.7,1.1,4,1.7c0,0.4,0,0.8,0,1.2c0.4,0,0.8,0,1.2,0c0.6,1.1,1.1,2.3,1.7,3.5
	c-2.7-1.1-5.1-2.9-6.5-5.4C108.1,191.8,108,191.5,107.9,191.2z"/>
<path class="st88" d="M96.4,273.4c0.4,0.2,0.8,0.4,1.2,0.6c-2.2,2-4.5,3.4-7.5,4c-1.3-0.2-1.3-0.2-2.3-0.6c1.4-0.7,2.8-1.4,4.2-2
	c0.6-0.3,0.6-0.3,1.2-0.6C94.2,274.3,95.3,273.8,96.4,273.4z"/>
<path class="st89" d="M261.4,127.3c-1,2.6-2.2,5-3.5,7.5c-0.4,0-0.8,0-1.2,0c0-0.6,0-1.1,0-1.7c0.4,0,0.8,0,1.2,0
	c0.1-0.5,0.2-1.1,0.3-1.6c0.3-1.8,0.3-1.8,0.9-3.6C260.3,127.3,260.3,127.3,261.4,127.3z"/>
<path class="st90" d="M55.5,98.6c-0.8,1.8-1.1,2.3-2.9,3.5c-1.3,0-2.7,0.1-4,0C50.6,100.4,52.9,98.6,55.5,98.6z"/>
<path class="st91" d="M90,80.1c-0.1,1.1-0.1,1.1-0.6,2.3c-1.9,1.1-3.6,1.3-5.8,1.2C87.8,80.1,87.8,80.1,90,80.1z"/>
<path class="st92" d="M181.5,214.7c0,2.1-0.5,2.9-1.7,4.6c-1.1,1-2.3,1.9-3.5,2.9C177.7,219.3,179.1,216.9,181.5,214.7z"/>
<path class="st93" d="M218.9,213c0,0.4,0,0.8,0,1.2c-2.8,1.3-5.7,2.7-8.6,4c0.2-0.8,0.4-1.5,0.6-2.3c0.4-0.1,0.9-0.2,1.3-0.3
	c1.3-0.3,2.6-0.6,3.9-0.9c0-0.4,0-0.8,0-1.2C217.7,213,217.7,213,218.9,213z"/>
<path class="st94" d="M192.4,188.3c0.2,0,0.4,0,0.6,0c-0.2,3.9-0.9,7.3-2.3,10.9c-0.7-2-0.5-3.4-0.1-5.5c0.1-0.5,0.2-1.1,0.3-1.6
	C191.2,190.7,191.7,189.6,192.4,188.3z"/>
<path class="st95" d="M68.7,186c0.9,1.6,1.4,3.1,1.8,4.9c0.1,0.4,0.2,0.9,0.3,1.3c0.2,1.4,0,2.3-0.4,3.6
	C68.4,192.7,68.7,189.5,68.7,186z"/>
<path class="st96" d="M401.8,302.2c2.6-0.2,5.2,0.3,7.5,1.7c0.4,1.2,0.4,1.2,0.6,2.3c-0.9-0.3-1.8-0.7-2.7-1c-0.5-0.2-1-0.4-1.5-0.6
	C404.1,303.9,403,303.2,401.8,302.2z"/>
<path class="st97" d="M307.5,256.2c4.3,0.6,4.3,0.6,6.3,1.2c0,0.4,0,0.8,0,1.2c0.4,0,0.8,0,1.2,0c0.2,0.6,0.4,1.1,0.6,1.7
	c-2.9-0.9-5.4-2.1-8.1-3.5C307.5,256.5,307.5,256.4,307.5,256.2z"/>
<path class="st98" d="M110.2,234.9c3.2-0.1,5.6,0.1,8.6,1.2c0,0.2,0,0.4,0,0.6c-3.1,0.1-5.7,0.1-8.6-1.2
	C110.2,235.3,110.2,235.1,110.2,234.9z"/>
<path class="st99" d="M186.1,207.8c0.7,2.1,0.7,2.1-0.2,3.8c-0.3,0.5-0.6,0.9-1,1.4c-0.6,0.9-0.6,0.9-1.2,1.7c-0.6,0-1.1,0-1.7,0
	c0.8-1.7,1.7-3.2,2.7-4.7c0.3-0.4,0.5-0.8,0.8-1.2C185.7,208.5,185.9,208.2,186.1,207.8z"/>
<path class="st100" d="M157.9,186.6c0.4,0.2,0.8,0.4,1.2,0.6c-0.7,1-1.5,2.1-2.2,3.1c-0.6,0.9-0.6,0.9-1.3,1.8
	c-1.1,1.4-1.1,1.4-2.3,2c0-0.9,0-1.9,0-2.9c0.8-0.2,1.5-0.4,2.3-0.6c0-0.4,0-0.8,0-1.2c0.4,0,0.8,0,1.2,0
	C157.1,188.5,157.5,187.5,157.9,186.6z"/>
<path class="st101" d="M360.9,98.6c3.5,0.2,5.3,1.2,8.1,3.5c-0.4,0.4-0.8,0.8-1.2,1.2c-1.2-0.7-2.3-1.3-3.5-2
	c-0.6-0.4-1.3-0.7-1.9-1.1c-0.5-0.3-1-0.6-1.5-0.9C360.9,98.9,360.9,98.7,360.9,98.6z"/>
<path class="st102" d="M159.6,43.3c-0.1,1.1-0.1,1.1-0.6,2.3c-1.9,1.1-3.6,1.3-5.8,1.2C157.7,43.3,157.7,43.3,159.6,43.3z"/>
<path class="st78" d="M188.4,26.1c0.9,0,1.9,0,2.9,0c-1.7,1.3-3.4,2.3-5.3,3.3c-0.8,0.4-0.8,0.4-1.6,0.8c-0.6,0.3-0.6,0.3-1.2,0.6
	c0.2-0.8,0.4-1.5,0.6-2.3c1.5-0.4,3-0.8,4.6-1.2C188.4,26.8,188.4,26.5,188.4,26.1z"/>
<path class="st103" d="M30.2,302.2c0.4,0,0.8,0,1.2,0c0,0.4,0,0.8,0,1.2c1.1-0.4,2.3-0.8,3.5-1.2c-1.4,1.7-2.5,2-4.6,2.3
	c0,0.4,0,0.8,0,1.2c-0.6,0-1.1,0-1.7,0c0-0.6,0-1.1,0-1.7c0.4,0,0.8,0,1.2,0C29.8,303.3,30,302.8,30.2,302.2z"/>
<path class="st104" d="M86,276.9c0.9,0,1.9,0,2.9,0c-2.1,1.8-5.2,4-8.1,4c0-0.4,0-0.8,0-1.2c0.8-0.2,1.5-0.4,2.3-0.6
	c0-0.4,0-0.8,0-1.2c0.9,0,1.9,0,2.9,0C86,277.6,86,277.3,86,276.9z"/>
<path class="st105" d="M397.8,105.5c2.7,1.3,5.3,2.7,8.1,4c-1.9,0.6-2.5,0.5-4.3-0.1c-0.5-0.1-0.9-0.3-1.4-0.4
	C398.9,108.3,398.9,108.3,397.8,105.5z"/>
<path class="st106" d="M222.3,12.8c2,0.9,2,0.9,4,1.7c-0.7,0.9-0.7,0.9-1.7,1.7c-1.3-0.2-2.2-0.5-3.5-1.2c0-0.4,0-0.8,0-1.2
	c0.4,0,0.8,0,1.2,0C222.3,13.6,222.3,13.2,222.3,12.8z"/>
<path class="st107" d="M83.7,83.6c-0.6,1.4-0.9,2.2-2.3,3c-1.8,0.7-2.8,0.5-4.6-0.1c0.9-0.5,1.9-1,2.8-1.4c0.5-0.3,1-0.5,1.6-0.8
	C82.6,83.6,82.6,83.6,83.7,83.6z"/>
<path class="st79" d="M320.7,65.2c2.4,0.8,4.6,1.7,6.9,2.9c0,0.6,0,1.1,0,1.7c-1.7,0-1.7,0-2.7-0.8c-0.8-0.9-0.8-0.9-1.4-2.1
	c-1.5-0.4-1.5-0.4-2.9-0.6C320.7,66,320.7,65.6,320.7,65.2z"/>
<path class="st108" d="M306.9,58.3c2.8,0.3,5,1.6,7.5,2.9c-0.4,0.4-0.8,0.8-1.2,1.2c-1.2-0.2-1.2-0.2-2.3-0.6c0-0.4,0-0.8,0-1.2
	c-0.3-0.1-0.7-0.1-1-0.2C308.4,60,307.8,59.4,306.9,58.3z"/>
<path class="st109" d="M203.3,20.3c0,1.2,0,1.2-0.9,2.4c-1.9,1.4-3.1,1.3-5.4,1.1C201.2,20.3,201.2,20.3,203.3,20.3z"/>
<path class="st83" d="M280.4,242.4c0.6,0,1.1,0,1.7,0c0,0.4,0,0.8,0,1.2c0.8,0,1.5,0,2.3,0c0,0.4,0,0.8,0,1.2
	c1.7,0.3,1.7,0.3,3.5,0.6c-0.2,0.4-0.4,0.8-0.6,1.2c-2.4-0.8-4.6-1.7-6.9-2.9C280.4,243.1,280.4,242.7,280.4,242.4z"/>
<path class="st110" d="M297.1,191.7c3.2,0.8,3.2,0.8,4.5,2.6c0.4,0.7,0.4,0.7,0.7,1.4c0.4,0.4,0.8,0.8,1.2,1.2c-1.7,0-1.7,0-2.9-1
	c-0.4-0.4-0.8-0.8-1.2-1.3c-0.4-0.4-0.8-0.8-1.2-1.3C297.1,192.3,297.1,192.3,297.1,191.7z"/>
<path class="st111" d="M288.5,173.3c0.9,0.6,0.9,0.6,1.7,1.2c0.3,1.6,0.3,1.6,0.4,3.5c0,0.6,0.1,1.3,0.1,1.9c0,0.5,0,1,0.1,1.5
	C289,178.8,288.3,176.4,288.5,173.3z"/>
<path class="st112" d="M151,47.9c-0.2,0.8-0.4,1.5-0.6,2.3c-1.1,0-2.3,0-3.5,0c0,0.4,0,0.8,0,1.2c-0.8-0.2-1.5-0.4-2.3-0.6
	c0.8-0.5,1.7-1,2.5-1.4c0.5-0.3,0.9-0.5,1.4-0.8C149.8,47.9,149.8,47.9,151,47.9z"/>
<path class="st113" d="M147.5,247c0.9,0,1.9,0,2.9,0c-2,1.6-4.3,3.5-6.9,3.5c0-0.6,0-1.1,0-1.7c2-0.3,2-0.3,4-0.6
	C147.5,247.7,147.5,247.3,147.5,247z"/>
<path class="st61" d="M140.1,53.7c0,0.4,0,0.8,0,1.2c-0.9,0.4-1.9,0.8-2.9,1.2c0,0.4,0,0.8,0,1.2c-1.1,0-2.3,0-3.5,0
	C137.9,53.7,137.9,53.7,140.1,53.7z"/>
<path class="st114" d="M293.1,50.2c2.1,0.9,4.2,1.9,6.3,2.9c-0.4,0.4-0.8,0.8-1.2,1.2c-2-0.7-3.6-1.5-5.2-2.9
	C293.1,51,293.1,50.6,293.1,50.2z"/>
<path class="st115" d="M53.2,293c0.9,0,1.9,0,2.9,0c-1.8,1.5-3.6,2.5-5.8,3.5c-0.4-0.2-0.8-0.4-1.2-0.6c0.4-0.6,0.8-1.1,1.2-1.7
	c1.5-0.1,1.5-0.1,2.9,0C53.2,293.7,53.2,293.4,53.2,293z"/>
<path class="st116" d="M377.6,222.2c0.2,0.4,0.4,0.8,0.6,1.2c-0.5,1.2-0.5,1.2-1.2,2.3c-0.4,0-0.8,0-1.2,0c-0.2,0.6-0.4,1.1-0.6,1.7
	c-0.4-0.2-0.8-0.4-1.2-0.6C375,224.9,376.1,223.7,377.6,222.2z"/>
<path class="st117" d="M233.3,219.9c1.7,0.2,3.4,0.4,5.2,0.6c0,0.8,0,1.5,0,2.3c-2.6-1.1-2.6-1.1-5.2-2.3
	C233.3,220.3,233.3,220.1,233.3,219.9z"/>
<path class="st118" d="M294.2,144.6c0.6,1.7,0.6,1.7-0.1,3.5c-1.1,1.8-1.5,2.1-3.3,2.8c0.5-0.9,0.9-1.9,1.4-2.8
	c0.3-0.5,0.5-1.1,0.8-1.6C293.6,145.1,293.6,145.1,294.2,144.6z"/>
<path class="st119" d="M408.7,111.2c2.6,1.1,2.6,1.1,5.2,2.3c-1.7,1.2-1.7,1.2-4,1.2C409.5,113.5,409.1,112.4,408.7,111.2z"/>
<path class="st120" d="M197.6,20.9c1.1,0,2.3,0,3.5,0c-2,1.8-3.7,2.7-6.3,3.5c-0.2-0.4-0.4-0.8-0.6-1.2c0.8,0,1.5,0,2.3,0
	c0-0.4,0-0.8,0-1.2c0.4,0,0.8,0,1.2,0C197.6,21.7,197.6,21.3,197.6,20.9z"/>
<path class="st121" d="M29.1,110.1c0.9,0,1.9,0,2.9,0c-1.5,1.7-3.1,2.5-5.2,3.5c-0.4,0-0.8,0-1.2,0c0-0.4,0-0.8,0-1.2
	c0.9-0.2,1.9-0.4,2.9-0.6C28.7,111.2,28.9,110.6,29.1,110.1z"/>
<path class="st122" d="M179.8,34.1c-0.4,0-0.8,0-1.2,0c0,0.4,0,0.8,0,1.2c-2.2,0.9-3.5,1.3-5.8,0.6c0.7-0.4,1.4-0.8,2.2-1.2
	c0.6-0.3,0.6-0.3,1.2-0.7C177.7,33.5,178.3,33.6,179.8,34.1z"/>
<path class="st123" d="M271.8,219.3c1.3,1.1,2.7,2.3,4,3.5c-0.8,0.2-1.5,0.4-2.3,0.6c-1.3-1.1-1.3-1.1-2.3-2.3
	C271.4,220.5,271.6,219.9,271.8,219.3z"/>
<path class="st124" d="M151,194c0.8,0.2,1.5,0.4,2.3,0.6c-0.7,0.6-1.5,1.2-2.2,1.7c-0.6,0.5-0.6,0.5-1.3,1c-1.1,0.8-1.1,0.8-2.3,0.8
	c0.2-0.6,0.4-1.1,0.6-1.7c0.6,0,1.1,0,1.7,0c0-0.4,0-0.8,0-1.2c0.4,0,0.8,0,1.2,0C151,194.8,151,194.4,151,194z"/>
<path class="st125" d="M101.5,182c1.3,1.7,2.5,3.3,3.5,5.2c-0.2,0.4-0.4,0.8-0.6,1.2c-1.8-1.2-2.2-1.5-2.9-3.5
	C101.5,183.2,101.5,183.2,101.5,182z"/>
<path class="st126" d="M294.8,249.3c2.2,0.6,3.9,1,5.8,2.3c0,0.4,0,0.8,0,1.2C298,252,296.5,251.3,294.8,249.3z"/>
<path class="st127" d="M248.2,224.5c0.4,0.2,0.8,0.4,1.2,0.6c0,0.8,0,1.5,0,2.3c0.6,0.2,1.1,0.4,1.7,0.6c-0.6,0.3-0.6,0.3-1.2,0.6
	c-1.5-0.5-1.5-0.5-2.9-1.2C247.4,226.4,247.8,225.5,248.2,224.5z"/>
<path class="st128" d="M176.3,218.2c0.6,0.2,1.1,0.4,1.7,0.6c-2,1.7-2,1.7-4,3.5c-0.2-0.6-0.4-1.1-0.6-1.7
	C174.8,219.3,174.8,219.3,176.3,218.2z"/>
<path class="st129" d="M391.4,102.6c2.3,0.7,4,1.4,5.8,2.9c-0.8,0.2-1.5,0.4-2.3,0.6c0-0.4,0-0.8,0-1.2c-0.5-0.2-0.9-0.3-1.4-0.5
	C392,103.7,392,103.7,391.4,102.6z"/>
<path class="st84" d="M153.9,245.8c0,0.4,0,0.8,0,1.2c-2.3,1.1-2.3,1.1-4.6,2.3c-0.4-0.4-0.8-0.8-1.2-1.2c0.7-0.4,1.5-0.8,2.2-1.2
	c0.4-0.2,0.8-0.4,1.3-0.6C152.7,245.8,152.7,245.8,153.9,245.8z"/>
<path class="st130" d="M372.5,226.8c0.2,0.4,0.4,0.8,0.6,1.2c-0.8,0.9-1.5,1.9-2.3,2.9c-0.6-0.4-1.1-0.8-1.7-1.2
	C370.1,228.7,371.3,227.8,372.5,226.8z"/>
<path class="st131" d="M347.7,134.2c2.3,0.7,3.3,1.4,4.6,3.5c-0.8,0-1.5,0-2.3,0c0-0.4,0-0.8,0-1.2c-0.4,0-0.8,0-1.2,0
	c0-0.4,0-0.8,0-1.2c-0.4,0-0.8,0-1.2,0C347.7,135,347.7,134.6,347.7,134.2z"/>
<path class="st132" d="M124,62.9c-0.2,0.8-0.4,1.5-0.6,2.3c-1.1,0-2.3,0-3.5,0c0.2-0.6,0.4-1.1,0.6-1.7
	C121.7,62.9,121.7,62.9,124,62.9z"/>
<path class="st133" d="M268.3,37.6c2.3,0.7,4,1.4,5.8,2.9c-0.6,0.3-0.6,0.3-1.2,0.6c-1.1-0.4-1.1-0.4-2.4-1.1
	c-0.4-0.2-0.8-0.4-1.3-0.7c-0.3-0.2-0.6-0.3-1-0.5C268.3,38.4,268.3,38,268.3,37.6z"/>
<path class="st134" d="M31.4,305.6c0,0.4,0,0.8,0,1.2c-3.1,1.8-3.1,1.8-4.7,1.5c-0.3-0.1-0.7-0.2-1-0.3c0.7-0.4,1.5-0.8,2.2-1.2
	c0.4-0.2,0.8-0.4,1.3-0.6C30.2,305.6,30.2,305.6,31.4,305.6z"/>
<path class="st135" d="M85.4,279.2c-1,2.2-1,2.2-2.3,2.9c-1.2-0.5-1.2-0.5-2.3-1.2C84.1,279.2,84.1,279.2,85.4,279.2z"/>
<path class="st136" d="M113.6,265.4c-0.4,0.9-0.8,1.9-1.2,2.9c-1.7-0.3-1.7-0.3-3.5-0.6C112,265.4,112,265.4,113.6,265.4z"/>
<path class="st137" d="M367.8,230.3c0.2,0.6,0.4,1.1,0.6,1.7c-2,0.9-2,0.9-4,1.7c0.6-1.5,0.9-2.2,2.4-3
	C367.1,230.6,367.5,230.4,367.8,230.3z"/>
<path class="st138" d="M110.7,194.6c1.5,1.1,3,2.3,4.6,3.5c-0.8,0.2-1.5,0.4-2.3,0.6c0-0.4,0-0.8,0-1.2c-0.8-0.4-1.5-0.8-2.3-1.2
	C110.7,195.8,110.7,195.2,110.7,194.6z"/>
<path class="st139" d="M69.3,99.1c0.6,0.2,1.1,0.4,1.7,0.6c-0.4,0.6-0.4,0.6-0.8,1.3c-0.9,1.6-1.2,2.7-1.5,4.5c-0.2,0-0.4,0-0.6,0
	c0.1-0.9,0.2-1.9,0.3-2.8c0-0.5,0.1-1.1,0.1-1.6C68.7,99.7,68.7,99.7,69.3,99.1z"/>
<path class="st140" d="M328.2,89.3c1.9,0,3.8,0,5.8,0c0.2,0.6,0.4,1.1,0.6,1.7c-0.9,0-1.9,0-2.9,0c0-0.2,0-0.4,0-0.6
	c-1.7-0.3-1.7-0.3-3.5-0.6C328.2,89.7,328.2,89.5,328.2,89.3z"/>
<path class="st141" d="M97.5,77.3c-0.6,0.9-0.6,0.9-1.7,1.7c-1.8,0.1-1.8,0.1-3.5,0C93.8,77,95.1,77.1,97.5,77.3z"/>
<path class="st142" d="M110.7,69.2c0,0.4,0,0.8,0,1.2c-2.4,1.8-2.4,1.8-4.2,1.5c-0.3-0.1-0.6-0.3-1-0.4
	C109.4,69.2,109.4,69.2,110.7,69.2z"/>
<path class="st143" d="M271.2,237.7c1.4,0.3,1.4,0.3,2.9,0.6c0.2,0.6,0.4,1.1,0.6,1.7c-1.1-0.4-2.3-0.8-3.5-1.2
	C271.2,238.5,271.2,238.1,271.2,237.7z"/>
<path class="st144" d="M358.6,236.6c-1.4,1.4-1.9,1.3-3.8,1.5c-0.5,0-0.9,0.1-1.4,0.1c-0.4,0-0.7,0.1-1.1,0.1
	C356.2,235.8,356.2,235.8,358.6,236.6z"/>
<path class="st145" d="M255.1,138.2c0.4,0.2,0.8,0.4,1.2,0.6c-0.9,2.3-0.9,2.3-1.7,4.6c-0.4,0-0.8,0-1.2,0
	C253.8,141.6,254.4,139.9,255.1,138.2z"/>
<path class="st146" d="M270.1,114.1c0.6,0.2,1.1,0.4,1.7,0.6c-2,1.7-2,1.7-4,3.5c0.2-0.9,0.4-1.9,0.6-2.9c0.6,0,1.1,0,1.7,0
	C270.1,114.9,270.1,114.5,270.1,114.1z"/>
<path class="st147" d="M367.3,89.9c0.9,0.2,1.9,0.4,2.9,0.6c-0.2,0.6-0.4,1.1-0.6,1.7c-1.2,0.4-1.2,0.4-2.3,0.6
	C367.3,91.8,367.3,90.9,367.3,89.9z"/>
<path class="st148" d="M136.6,55.4c-2.3,1.1-2.3,1.1-4.6,2.3c0-0.6,0-1.1,0-1.7C134,54.8,134.2,54.8,136.6,55.4z"/>
</svg>
