<svg id="Layer_1" data-name="Layer 1" xmlns="http://www.w3.org/2000/svg" viewBox="0 0 377.56 69.58"><defs><style>.cls-1{fill:#231f20;}.cls-2{fill:#ed1c24;}</style></defs><polygon class="cls-1" points="190.02 69.1 169.97 69.1 169.97 67.33 173.82 67.33 173.82 20.57 165.15 69.1 155.27 69.1 145.1 20.57 145.1 67.33 148.94 67.33 148.94 69.1 137.41 69.1 137.41 67.33 141.25 67.33 141.25 2.25 137.41 2.25 137.41 0.48 153.76 0.48 164.39 53.93 173.66 0.48 190.02 0.48 190.02 2.25 186.18 2.25 186.18 67.33 190.02 67.33 190.02 69.1"/><polygon class="cls-1" points="232.46 21.05 220.17 21.05 220.17 2.25 210.9 2.25 210.9 31.96 224.77 31.96 224.77 33.74 210.9 33.74 210.9 67.32 214.75 67.32 214.75 69.1 194.69 69.1 194.69 67.32 198.54 67.32 198.54 2.25 194.69 2.25 194.69 0.48 232.46 0.48 232.46 21.05"/><path class="cls-1" d="M284.7,68c0,2.75-1.82,5.1-5.43,7.06a30.63,30.63,0,0,1-26.19,0q-5.47-2.94-5.47-7.06V18.38q0-4.11,5.47-7.06a30.63,30.63,0,0,1,26.19,0c3.61,2,5.43,4.32,5.43,7.06Zm-12.37,4.31V14.07a3.27,3.27,0,0,0-1.81-2.77,8.88,8.88,0,0,0-8.74,0A3.29,3.29,0,0,0,260,14.07V72.26A3.28,3.28,0,0,0,261.78,75a8.88,8.88,0,0,0,8.74,0,3.26,3.26,0,0,0,1.81-2.77" transform="translate(-8.22 -8.38)"/><path class="cls-1" d="M335.58,77.47h-5.36q-10.85,0-10.85-7.17V46a3.29,3.29,0,0,0-1.81-2.78,8,8,0,0,0-4.37-1.15h-5.35V75.7h3.84v1.77H291.63V75.7h3.85V10.63h-3.85V8.85h21.56a27.23,27.23,0,0,1,13.12,3q5.42,2.94,5.42,7.06V32.11q0,6.42-10.78,9.09,10.79,2.88,10.78,9.14V73.07c0,1.76,1.18,2.63,3.55,2.63h.3Zm-16.21-41V14.55a3.29,3.29,0,0,0-1.81-2.78,8,8,0,0,0-4.37-1.14h-5.35V40.34h5.35a8,8,0,0,0,4.37-1.15,3.27,3.27,0,0,0,1.81-2.77" transform="translate(-8.22 -8.38)"/><polygon class="cls-1" points="377.56 21.05 366.18 21.05 366.18 2.25 360.6 2.25 360.6 67.32 364.45 67.32 364.45 69.1 344.39 69.1 344.39 67.32 348.24 67.32 348.24 2.25 342.66 2.25 342.66 21.05 331.28 21.05 331.28 0.48 377.56 0.48 377.56 21.05"/><path class="cls-2" d="M53,10.63H49.14V68q0,4.13-5.42,7.06A27.19,27.19,0,0,1,30.61,78a27.05,27.05,0,0,1-13-2.94Q12.15,72.07,12.14,68V10.63H8.22V8.86H28.34v1.77H24.5V72.26A3.27,3.27,0,0,0,26.31,75a7.8,7.8,0,0,0,4.3,1.15A8,8,0,0,0,35,75a3.28,3.28,0,0,0,1.8-2.77V10.63H32.94V8.86H53Z" transform="translate(-8.22 -8.38)"/><path class="cls-1" d="M96.26,68q0,4.13-5.43,7.06A27.19,27.19,0,0,1,77.72,78,27.3,27.3,0,0,1,64.63,75Q59.17,72.07,59.17,68V18.38q0-4.11,5.46-7.06A27.3,27.3,0,0,1,77.72,8.38a27.19,27.19,0,0,1,13.11,2.94q5.43,2.94,5.43,7.06V29.43H83.9V14.07a3.29,3.29,0,0,0-1.81-2.77,8.9,8.9,0,0,0-8.75,0,3.29,3.29,0,0,0-1.81,2.77V72.26A3.28,3.28,0,0,0,73.34,75a8.9,8.9,0,0,0,8.75,0,3.28,3.28,0,0,0,1.81-2.77V56.9H96.26Z" transform="translate(-8.22 -8.38)"/><path class="cls-1" d="M139.49,68q0,4.13-5.43,7.06A27.2,27.2,0,0,1,120.94,78,27.22,27.22,0,0,1,107.87,75Q102.4,72.07,102.4,68V18.38q0-4.11,5.47-7.06a27.22,27.22,0,0,1,13.07-2.94,27.2,27.2,0,0,1,13.12,2.94q5.43,2.94,5.43,7.06Zm-12.36,4.31V14.07a3.29,3.29,0,0,0-1.81-2.77,8.9,8.9,0,0,0-8.75,0,3.29,3.29,0,0,0-1.81,2.77V72.26A3.28,3.28,0,0,0,116.57,75a8.9,8.9,0,0,0,8.75,0,3.28,3.28,0,0,0,1.81-2.77" transform="translate(-8.22 -8.38)"/></svg>